<mxfile host="Electron" agent="Mozilla/5.0 (Windows NT 10.0; Win64; x64) AppleWebKit/537.36 (KHTML, like Gecko) draw.io/26.0.4 Chrome/128.0.6613.186 Electron/32.2.5 Safari/537.36" version="26.0.4">
  <diagram name="Page-1" id="DRdguIXcKaor62uw-Akr">
    <mxGraphModel dx="1036" dy="607" grid="0" gridSize="10" guides="1" tooltips="1" connect="1" arrows="1" fold="1" page="0" pageScale="1" pageWidth="2336" pageHeight="1654" math="0" shadow="0">
      <root>
        <mxCell id="0" />
        <mxCell id="1" parent="0" />
        <mxCell id="PY7oa7wBQ1f4bU9Xa10v-1" value="" style="shape=stencil(lZfbbtswDIafxrcEJYo6XHfdexRougTLmiJNd3j7MTCUWnT9F71zHH6iSJE/5UnuXvcPL7sp8uvlfPq5+3N4vOwn+TbFeHje786Hiz1Ncj/J3dPpvPtxPr09P86/Xx6ultenX6ff1xX+zlwlrVco8r/5BVOZX3yfzY+H54V5jBR4sK8U8ra95L5ctw+FBAAa/YbMQwVAtvVGIAVqug2URjUNgCq1uA3URjICuVGUbaApSRyTxCQBAI149FDtXBoAQs9JB1qFQRsQmwdigUAoI1BIQZYM0DACmSoDIK62lLvPjwGh5DwoFeQhUVEPJJQl20BbAShoy0nxQE4AqFTEB80o6Ob7wYAMOjQwE48tarsUVEyN2qqYAgqiUSoeqDhqn6b2WV4le6AiwFp49LDIw1ZxqHgXDQUhFIMHMqqm2LO4AAJu0iQ+r4piCF18F0ddcFeLeoCRlJmWrppUcJP66lNcG2klA9qVZOuoy0oGEspSoRBXHnC5upFyLS+s325CWJYSGFpfB7if621C3ITh46FlQY8xVKsuoAJ1VRrFfIItlUg8plWt+IAHtRYePSQ7e9APyebo2A9iQwZsKTYqY1rtOoN0JmgfgjfZCJRBLQU/ghKUVu5SfQuAGlidKbIzF7D7ldDH3hlb5s2ZM6gg7gV5Sw2sn+Avhtynyoa502uGtwtTleDMIwg1eV1kqHLaJW1hDo4pk6ozD2Dvpd8I3s1RzXzxRv6puT28X/6fDsfj/O2w/N9/LNir+UND7v8D);lineShape=1;strokeColor=default;" vertex="1" parent="1">
          <mxGeometry x="126.88889166215063" y="311.2913672787271" width="30.236659388717953" height="58.35080349559473" as="geometry" />
        </mxCell>
        <mxCell id="PY7oa7wBQ1f4bU9Xa10v-2" value="" style="shape=stencil(rVdbbhsxDDzN/hKSSOrxnab3CBCnNurageP0cfty665jUdkJCvRvV+KIryEpTXz3sn143kwpvJxPx6+bH7vH83biT1NKu8N2c9qd7Wvi+4nvno6nzZfT8fXwePl/fpgl569vx+/zCT8vuMiU64xK4dffFYr6Z+HzRX6/O9zIJ6FQOvlMQdblWaj08lFIeR0gShI6QFKqZR2gmZp2AG6U6jogF+LeJGWKbR1QCiXpfc5U4jqgKqVegx3RQFRbJI4doGbSDABt2V4ATaFJMQQKfVybOQESYSqyU1GoICcqaU8lW8kgEWZAdRoaCXCiCeXmARWFKRH3Tt/E4f3UNWo8qECAQnUAJMAmy+y814dJP2BT9YlA5DBAHFKNas4APq5KmqDTnkyWGsCNWqk2Dwgo1daGHDcYarBtzz4DIH5bWxkADbQyi3oV74Mik5rvG6aTATUM0BwgE6MKakMFFRKQOAOEgXzQJDtvKDnULM1FUQ+AbYMHtloYkIZAZQSgEq0k1QMEl6ivh0oFAXSp4Js81P8JKNV3MvMKDeqSPJeKNXRQcVmWcrlOOYsbqAeVhZvXOaoU0Gi3guzJJ5EEjHaOnnypLreD928nYbH42u8trKAeYiT1AwJGKS53kavPkEnBDweB5gRKwYkH0OiHkc6UoHjqm0WC0Q/+XhWpANvTcg98E0e2M0lvTCBFZKMoTjyiOx614sTh1PedPcDhNHPEG58Qy4ZriB0AzPnXS/nH8vbx9gJ42u33lwfE7b5/MdjS5bXB978B);lineShape=1;strokeColor=default;" vertex="1" parent="1">
          <mxGeometry x="160.3915256354362" y="324.8000332414538" width="20.680605610115208" height="48.24094590743994" as="geometry" />
        </mxCell>
        <mxCell id="PY7oa7wBQ1f4bU9Xa10v-3" value="" style="shape=stencil(lVbRbtswDPwavxISKVnSc9f9R4Gmi7EsKdJsa/9+5xlOQ62+oW+OzQt5vCOlwe5e9g/Pu0HDy+V8+r77PT1e9oN9GVSn4353ni54Gux+sLun03n37Xz6eXxcfj8/zJHz04/Tr/kfXhdclthmkIa35UWqEtPfN1+X+MN0vIlXlRwcIFZR2wZYkJYdoElo2/FJxXwClULicxZLLj5ICNvxY5WinoCEuB1f8dlcfJZC4hv4Vv//JqMSQJHsE6hJIwxiuDJcEZYlVZICmvoUqVCVm0r0GXKRsZAuwRbFAcYsbdwGlCA5OkCJtCQUoL6kojIS0in1wiFnIsoZnNdxSJIJB+iUvLVhxkIA86h40iiykZIiZPJmMpNIdID5kwfA3iUTQJHiSccolXAwcPAANInYO4fVzO/zmQll9Ny0i1dCoJTe20Y1qLUfnhiojxo07VqKihigyTj6iiL1EQDajaeJkZ3a0HK/83JavfsJABtPW6d3BWDC2RbDWtUO0NbF/DEgSPUnD4ocSUlZ165fAcjJT5LmSd9szo+9jYH23oA0hQDg/W6gsc0T293Yil7qZtTebT2crm1FAqK0SfXTWfnSgwrdGlZ6lPxz9GBeI7FqlORVxopk6+Wz95H/x+Ph/fLzNB0Oy93p9nt/WcKr5aJl938A);lineShape=1;strokeColor=default;" vertex="1" parent="1">
          <mxGeometry x="152.07793623190219" y="329.18082945409367" width="4.856654665177075" height="5.535551952378455" as="geometry" />
        </mxCell>
        <mxCell id="PY7oa7wBQ1f4bU9Xa10v-4" value="" style="shape=stencil(lVZJchsxDHzNXFEkwAU8O84/XGU5UkWRXLKc5ffBRKEscDSdym0WNLZugJzk4W379LqZOLydT8evmx+75/N2kk8T8+6w3Zx2Z3ua5HGSh5fjafPldHw/PF/eX59my/np2/H77OHnBSeBmswoDr/+fqES/3z4fLHf7w439jlQKs4+FlJdB5RENTgAK9W6DtBA1UdIQhrWATEECj6ECsW8jmiNxIdQJRYAKL0pHdCYGsjJfgff1tkFSEkLRV+DJRkBEbVRyp6Ijz7cR3Dv+00IToC6MjJhRTSQU7GqkwcIMag6W408EoHalJVkQXUG8rMIxddQFQKKUPBdqoliAQDtv6+AQIqYS5R8DeZCkTYixTQCMoiglYp6QIMpGU3ieTCxFAaASslHqKZvoCWTWvUDYVUl0FYD6CCNQhkBKlU/EM0ioBpkTKllymALmDZj8wDtQ7hGXF0MNVqWJo2WR0BBatXe9SugQi2ZvNNQdKICtoYNkA5bIxADHuYRHZjOxGhE7wLaOiBxp6kDsgEA02y8ei2JiQW1ddxjnODA2c7wwuBIDfQojv6jUgPTszjgYoZrMiz8M+RssWAsHXBES3d27T812M3BXPDk99jX5OHcR1vPfhUFEpCNtbrIYI+OzZnc0X8CXHEdy439CLrfzP+8gf3b3h4+rnsvu/3+clu8/T9eD+3T5Wopj78B);lineShape=1;strokeColor=default;" vertex="1" parent="1">
          <mxGeometry x="160.62014212319036" y="325.0061878721767" width="11.792242157713645" height="15.601784971416691" as="geometry" />
        </mxCell>
        <mxCell id="PY7oa7wBQ1f4bU9Xa10v-5" value="" style="shape=stencil(rVbbbtswDP0avxIUqQv13Hb/UaDpYjRLijS7/f3keUpN1mYwoG+2zGPqkIeXge/e9o+vu4Hw7XI+vex+jk+X/cD3A9F43O/O46U9Dfww8N3z6bz7ej59Pz7N76+Pk+X09O30Y/rDrxnHCMgTivD3fBIh5L8HX2b7w3hc2McEEpU9BRDZBuQApAEs/RergMIgWQESQSrbACEQTSETVAdQGaZvC0ApUNgBVCgaUAOk5AIMh3pltQ4QYM2hZkCPQwJGDShQnbC2G2PVgApUnbBmCNECqsNBsH9eAMTxUJoHtIB/J+sA6jFZkM5OHnKjKBqQoDgesgAa0gzRId0A0VwpuAVUEJLWktTuc6seqk6cFGByAAJJh3VKpZdphmQ8tCg5YRWx9SA31MrA2XLwMt3yikED5FaJsgZUBHE8BGydz6iPe4lsuUDTBVKntQ7IXToLubIXJoJsriRQg5OIYrvxVHKONlqvzFquizisq+laYQsX0dcrVUvCk1+rCDQeMrADaDVHpuZi7+ifBGAIGtCamye/lEE0h3xV8PocbSNFR6n9wuvfXCCZQc299awC6ENYKbv9O3yYKK6UEMh0mX6wYW6qLfc+uGFedDlHd36S1Rz3eboefchmiXGTVaw5uvtFCHauoTtpQ7QLjF+SQWybQAjO9afoBGOfnehQgqjv07Yd7/9iVwvq2VuX8n/unLft28P7gvs8Hg7zfrz8bhfidjQv0/zwBw==);lineShape=1;strokeColor=default;" vertex="1" parent="1">
          <mxGeometry x="199.21897626996883" y="353.21726575402465" width="12.645710799240078" height="28.3659247624189" as="geometry" />
        </mxCell>
        <mxCell id="PY7oa7wBQ1f4bU9Xa10v-6" value="" style="shape=stencil(lVfLctswDPwaXTEEwec5Tf8jM3FqTV0747ivvy9UDV0SiraTmyxjBWABLMFJHt6OT6+Hybu32/Xy9fBzfr4dJ/k0eT+fj4frfNOnSR4neXi5XA9frpfv5+f19+vTYrk8fbv8WL7wa8VlT4UXlHe/1zdCIfx98Xm1P83nzj45inGwz1T8vn0olEZ7FspxHyCZUh0AnqnKPmAJYASIAhgAHBUZAMFTzvsAzuTSAIhC0QFAIh5JTUICWOJCYcwhMxXAklYphRFQiUHdlJPiBkAJVIGHwJTHpEulAHKITH6sdPVUQUg5tjJ1HirwkJWlYgEMWqNoI5gcCsUCABpStQABHqprrHeAAFqjCtVsAbkCQCZ2mzqAwlXlZGRJg4TN5xy50UVlEjBB6sIUQksNATrUY9bKg0eA0ESiAyAV0IjdWAj9hABeS2rf6wARNZMq5dYDKIROpHc2hwJ0JqcWcQdgNBDKEts6eNB9ChCTNGNAJDE5OPIopExxM9QCki6Ost8MBKpDoLQBCBrq0tS9BwBhUhKt9OkphppP9X6jlYjWWmwOSqsDtOrElWwBFSS9ADYzDQF33erlGyX9UYDKtzPdqiyBkPSUTSOgk6r3T7lgC1Ej7A0fN0mo9CUgltHuSyokjLqP3CiVKgtI7z1Fswl4qAEb7dZVwwNV0nEbVUxZZjCfwQqALkuMCOJ2JN/XMdypGpHZEJc3eJUxiqE+M/AQgl00IqQ0FvJjCpoB6LqoFXXGPoLvJ7Ya6ZrD9+3F7txadFDiFLfxoKlJue2anT1oiaTakmz86FxjO8cObmFZmhZ2/KPvS2uwe0PAO4yegiEZe7QKL/ZjPL7tP3vxGH48nICP3sH+b68P/y58L/PptN4X+//tBVFfrZdLefwD);lineShape=1;strokeColor=default;" vertex="1" parent="1">
          <mxGeometry x="160.19761282838067" y="408.14634463103187" width="16.181460864684368" height="66.89416755593595" as="geometry" />
        </mxCell>
        <mxCell id="PY7oa7wBQ1f4bU9Xa10v-7" value="" style="shape=stencil(7VjLbttADPwaXYld7vucpv8RIE4t1LUDx339fakKq5i0NEaPBXJTNjsml5wZrjSEh7f90+tuYPd2OZ++7n6Oz5f9ED4NzONxvzuPF3kawuMQHl5O592X8+n78Xn++/Vp2jk9fTv9mH7h14yLTI4nFLvf80qmVv4ufJ73H8bj1f7siLPaHxKVsA0ohZwGZE9ctwG1UUkKUGSlbQNasSnVQhGk1Cp5pwESIcMIJSpAY/IeADKxjtAiBRQhUCoakDHAkTMRKjmQUk2UmwY0YgRw1LwFVNC4kqhpKnm3ZLmO8JZ8EiIlwL5MsdlTQwBTMgDhIzhEkgQ0mVrqvVwHlBtAIBcBoFLUACkcEkQSRepWJwGgCJmqVlDwfWXrDFWnxJUySElcoGm6cqLKAJBsSiyMR2Ty1KoGMOxDqVQ0l1gOjQURio0QkeR8r/oCiOSQMYkz6saJuSZkG5VYs5UbRVAlARhjCgwbN7Ffi3qybwQIN35fYZXEew1bo6MI2Fq91XT0lFCnoy3rBAARspQ12JTuuEYp9tAZa7rqM4QMnU8UZ+xbGteAgATARg8yswCXxMisHjIE5GgHtdAb2UyWcaDLKgJCZS3i3sYEfP+JdWoI+dhG8AggcjGA0GOu0ztSNBKVOYnuDoXyjVXCCEINI1FPGZvACgBw6WrKLgMi9qH0cWP6uDH99zcm7lNzYV/qXrUKkHnQtNFIGdBdQGyl6ZTiHc31hJfGBSigG+75pZEb+9mcGAraW1PK5MHFRHxdSyfCcpZO4sXy+jVlPRm2o8rBV0pfrMs7yJ/pmubNfqQZyT8lsz+C/TKJg2kuNBYZ9cnMkO7g6/uX19n38hegyH99Rb+/Xx7evwe8jIfD/Dnh+v/2+4Eszd8ewuMf);lineShape=1;strokeColor=default;" vertex="1" parent="1">
          <mxGeometry x="175.3503496638723" y="441.34591662877165" width="8.59186399151713" height="18.17998194422603" as="geometry" />
        </mxCell>
        <mxCell id="PY7oa7wBQ1f4bU9Xa10v-8" value="" style="shape=stencil(7VjLctswDPwaXTEkCL7OafofmYlTe+raGcfp4+8L1aUiQtJ2OtNDD7nJEtcggMUC5BDuXvYPz7uB3cv1cv68+3Z4vO6H8GFgPpz2u8vhqk9DuB/C3dP5svt0Ob+eHm+/nx/GlePTl/PX8R++33DeE8uIYvfj9xty9deLj7f1x8Npvr5Sdt36RF6213Mhzv3/R0phGxAi+d4AZ/JlGyCOcm9B3xQPAJHYd4AobZPrgEKlj1GKVOI2IHqSHpATJeCDbkBCB6iuhWELUFMP0EQiQCTXR6kGcthC5h6gb5APgWrvdE0kDABM2fiQW6C3wmq4VAtVkAepFM2WKsyD5PZ5YqtzMExKplytiQIKSDRMC0AAXgtTWHgtaEtawWLj6kEitF6cSUSkCMIUNK59BSmZUEEoIPT8LkweqYACeguZYVErgHu6JoEVFJQ6/ZaULQU7bbakcWOkM0Kl31LQkgNRSo6qtwAPuJRK+zwB1CuQ6SyWS8r4jADVckmFBFkogTharUQFVBLlPg85QJ0pmaSv0eKpAC6plEqygAC2pGSWaAEZZFqFzhsLmmkE0K5ofJj0eR2gutVTQ8OQ0jZgpluzlhJB5tSELIo6ABOqKtVY0LaIANr5F8KUkdfcVGUu+IhMtTFhJq4eJELZZ33A4lqkxWTW5RD7VOjEyLdQBE4r1wz7tLUjcR3Z3KtAKW062NoSG0CCSqZOO0NX1XvkQ6JoKoixhbpScgGoQF2EdYwb4lK08j1mBoircjOZLUn7i60CMuPJqG0gcQqoJqzaWFEB1SZDEzW4TZpbOhMXJepQWJPVSg0DI9UItsmpzfQvAUmlr/ehuNaU1gG8OKJIC8P6XKnybboinuHipHPzYQONurERYT7OgEwrwJJvKtr3AwE+EKBZ+v1A8N8cCHwf1zolfx2QW0ymCqqwjYZoR6xRSJAFb4eNWNqpfP1qI9ueJanFbR3AbfyfxnVpg+P6ELfo7D63U8u6D7bHeW7T9boBKxpqMYG0OXtm8g5O0npAMnMxTPJiZM3wCOfs1B1hM3SUewYFKMHedhFu6V5Pru3lHg4LYgvGwWEkNS1/W45Okrldi8yWowMPpWyWo8H/r+8M/7heH94uKJ8Ox+PtfnP+3V5o6qvbZWi4/wk=);lineShape=1;strokeColor=default;" vertex="1" parent="1">
          <mxGeometry x="181.5772440879823" y="437.9851989589308" width="27.80832727747088" height="29.158474088816547" as="geometry" />
        </mxCell>
        <mxCell id="PY7oa7wBQ1f4bU9Xa10v-9" value="" style="shape=stencil(lVjbUhsxDP2avGpkyxf5mdL/YIZQMqWECdDL31fb1EksZw/D2150VvcjeTdy8/p497LdRH59O+y/b3/t7t8eN/JlE+Pu+XF72L3Z1UZuN3LzsD9svx3278/3x/uXu0Vyufqx/7l84fcRVymXBRT5z/EBUw7/Hnw9ij/tni/EQ6aaBnmhktflYyLNg3ylquvykiiN8iGS1HVAypTqCKiksg7IlYIOALNxuV0DFKU6apBAAcSoNiptBCgMkirFUUMqMAstUQ0DICfiBABKOppUAiWQh8BMzCNCKQMnTIXImOlMDBJhTshok3IvluthqiSjSZqpASeqUhuLuzEFoKE0yqNJTSgBH4p9zwEyKTApR4rOJOtAUN9SSEenW4MaxKI+1vdFLq8jhKR4FQ0BAmnwgP+Buw7gKa4NtlA0H0easfJCHWGAIj6uCjrCAE09IGAf1EWpUAEmSfREY4CAUi1Up2JqSEOmLB6gSEPtTHdhEuKNhbiqByRkUqOaPaABDYlJos8DaogFMJVGRD60qVoVd9BE+FatCUwIC6s3qfWuXUtcmTsOFZ9QixOgwOKLU8dV5ANTyx4QcT+w+LAiDUuLToljkOnYJuqrlFBYjWam8q7Ih0CVPUAwVcap49AI+jQg1R7EEyB1Qr8+UTIFF9ZIivYZmbj1RG3Xx2js1Huau0oBAGyOp9FpTT0za5Pd1ZJ9gkHizGK3hlZbidCyEf2MW9Y6tGIFkpG9i/E5KI1lOxlZw3ayBspbgx/UlvsCAJYH1w/GhQFlOhKPThstoH7I7DMdP5wP6rbvBrfvOJV3SPjAUScN3L26nrhu8ClvMEbBT8QId1ALkDs8wMLmPvDP4mj/nHbu0Kfpmnhz4gKSxX2InY96aIRwn0hncbTumKn+ICmoEPxiYaEC4uKPVOY7iHvyWwjegLNfvBhSbvHkw32pv963nztifyhuF+fT/MPu6en4M+DyvT/926PjnwO5/Qs=);lineShape=1;strokeColor=default;" vertex="1" parent="1">
          <mxGeometry x="218.94859357145674" y="410.5523104200794" width="33.058546448305606" height="86.10551695488687" as="geometry" />
        </mxCell>
        <mxCell id="PY7oa7wBQ1f4bU9Xa10v-10" value="" style="shape=stencil(lVZJcttADHwNryjMYNaz4/zDVZYjVhTJJSvb7wOGIc3BUJ3yjSLRAtBoLIM8vB2fXg+D57fb9fL18HN8vh0H+TR4P56Ph+t406dBHgd5eLlcD1+ul+/n5/n369NkOT19u/yY/uHXjHOVEk8oz7/nN54k/n3xebY/jeeNvRRKubF3maTeB8REpXUggTzwkD351ACioxzuA0ogKQ0gZUrlPqB6Sq2H4og9ABQS3wCqI8cgJKbQeqiJPMqBOw+BsgMAR961AMEehDjYHCooXImUnAUwoLUUS2vlRVz7tDoqPQDVIVCpXR0EADIFk4MnzgBQyRVLqwBaHTNxq+8pSpREpWySSLDlVH2xbTlNKycASBQMoFBFIQllk4OOBaANrZMJacPDvjjWKbFxgWjSro5dTA5kXXRusM2akcCZsthCZKAmBfwbXCsgkkc5MJWuSWFX+0VsG70K0KuylLqOEJRD7rqaYUj62czvqfhIfbJobQOoyEOiFG0OMKTSJe2XwXCv5YqhNSzz9gMAVDiVhtGSwA2R132w7iCBIaVimzprHUBIunhdW7gY4fwOurRaWnXZo9WupwK3w1LfBCA+R6klKS/9sWuu+bVCSlAW3SCOkB+29OhZAtjp2gDXt6dmWb/7ZxWVtgV0r4GVkJZzZTFfS7evTgrRmKPYne55Z+zRbHdCsft/EI6Lyzx4t09gyOmFWc22oYDi+eBN+397fXg/oF/G02m+v7ff7cGtr+ZjXR7/AA==);lineShape=1;strokeColor=default;" vertex="1" parent="1">
          <mxGeometry x="456.27061686251454" y="304.66573869808644" width="16.29642272554679" height="34.122610081415814" as="geometry" />
        </mxCell>
        <mxCell id="PY7oa7wBQ1f4bU9Xa10v-11" value="" style="shape=stencil(nVfbctsgEP0ave4ACyw8p+l/ZCZOralrZxynbf4+q2pQBEinTd9kvIe9ngMMfPdyfHg+DM683K6X74df4+PtOPCXwbnxfDxcx5t+DXw/8N3T5Xr4dr28nh/n388Pk+X09ePyc9rh94yzllKYUM68zSuGjP2z8HW2P43nlb0TMqm1N/v2PpC1lb2nFPftQyYxlb31ZPw+QAxx7cAxZQRIJFIB2JNP+4AU2pC8JwGAbCjXNQ1MUQBAa1LnEB2ZDABCXHchZgoopEzeVYDE5IAHa5a+FkTm0vo9F1y7yIEcAkj5ewHoSoBlsk1I2ktUJtMOnwYpYDamVtc5rOqwjbDkTesioPETCrlNwgPGiQ5bk0QkYQDgQpgF4OH4iSOJNcCRB41QD7kJSVkIqiSRuPaQEvaQi0osAIGMSKoSXAMWn9uAJYA1AE2foxi6kECntU02tUkzkoFEMbdldaCsOmptHxwxCqlTVx2NAKqkIbWUixTB8E2cr9VVt4AhWQo9gRDjhGxuARmNhqPUeRDEh+6E0BwSmtZQKL9SMpS0Esg3gFAUfZeinRpbkPR/AWrGqVIJ4rShWHuIHgKiUKynNWACRRWymnE+FS3cvjx0MsOZLPCg+4Xag8uw07ycHwvAQm3V605TVutKVtsHb3chmwCIce05Pe0AKB2LUq/ske4tt6mPI5GCAxm3QpzLrG+am1bzVHFANN2tRM/Cz5gHeE51wTAlwJkuVVcm/B8rSQE0tmuUgfTq5sBAvn/24v93e/34eGU8jafT/EhZ/9++SnRpftHw/Ts=);lineShape=1;strokeColor=default;" vertex="1" parent="1">
          <mxGeometry x="475.16485105317156" y="312.3449197707997" width="17.170596064223446" height="34.11390758064999" as="geometry" />
        </mxCell>
        <mxCell id="PY7oa7wBQ1f4bU9Xa10v-12" value="" style="shape=stencil(lVbLbhsxDPyavRKUKErUOU3/I0CcelHXDhz39ffldutkqbhT9CavOZI4nBlokruX/cPzbsr8cjmfPu++z4+X/SQfppzn4353ni++muR+krun03n36Xz6enxcfz8/LJXL6svp27LDjxUnQioLKvPP9UuiZr8/fFzrD/NxU9+ZVEO9dNIGAJW4B0Bp1BkAOkkOADVKGQLMAqB2SgoAjVo8ofkWAgBC3ALAOjE4wSqVFABdyQCgGZU4Bu9K098B3mK3EVDBCTVRLxFQKQOA6pXETdMVTFqZJPZgTBVMehFCpHXpqgOA3ZDGn65uXymRxB58iwomrZVaZKkwFF8V6rFpKSSg6ZYp1Qhwx4GmnUSNLEmGWjKjHKUhjQRZtFCJgFLIEMDG0NACQyAxE3MctVKp8IhhEK2SoGB6vfKr+lzfwEFOkw0e9VkiQKI0WM6gIXzULUbfhofbanIao8CXrAI0aaM85IbrC5n0JgDwmjzKooVc8hlYKCXiSJN6boAe6jXotmICc/Awjhy5pxkYiMc5u6URp++k6n7rwG8eclGp2ZMT3N9VEfdPPmMU9cQxMJzhBO6f+B2hZKheR4JcEUCk/kIYGmbcb7uO/60emeB/nyT/rvfF2/vnaT4c1ufT9v/xveSf1reW3P8C);lineShape=1;strokeColor=default;" vertex="1" parent="1">
          <mxGeometry x="500.0400162881508" y="333.25100652647063" width="7.843203546063023" height="5.99624112233812" as="geometry" />
        </mxCell>
        <mxCell id="PY7oa7wBQ1f4bU9Xa10v-13" value="" style="shape=stencil(lZbdchoxDIWfZm81lmRb8nWavkdmQgpTChlC+vP2Fd0xRWZXae+WxR+WzpGEJn542z69biZKb+fT8evmx+75vJ3400S0O2w3p93ZniZ+nPjh5XjafDkd3w/P8+fXp8vJy9O34/fLL/ycOW5Q84Wi9Gt+Qwql/XnzeQb2u8MtUICKA3KDJuuAJsjkAQXEAKigNN4gaR1oBCU5oDBoCYDav+5ATYDRDW3MoUoPcg1oXlapgIGsTYGrAzQD5wDIoP6GhpAjWU1En7TJUCPjGKpP2rIqgawiXcQbQIIbJIH6pJsABSrVAkU8QMAaANgDuMpqP1HXgdJAPWBZlcBpq5w01FID5ACwiNED2FtqGaiQh/LOIIHTgtAGIAEF5S0K5Gvp0qKBrFabcgdoALQEwj4kAgpyaGaTeuCDjlMQD1ixYNBAmMw5L5MwcNSjrc+tazFhaIQ1GPkbrAkpqA1r4SFr0wGDcrVqHnRtsRFiAfj6vtFhldD/Ioi7tdegUmhFgToYgb0gF8/fGZcJamBcGcsbax/Pyx0H6kVFBI18BvaDUvqL5cqjcYoxSHT+bgDE8pg+QxV94Fcex7CdD+S0fBMO8eRoZaBxCOdwQtqKMf559gCXz+uovymcg4nKbQwIpa9Bi0C2+elvMMvCFJbWqhp48A97mD383eJedvv9vATefj9uffZq3hj58Tc=);lineShape=1;strokeColor=default;" vertex="1" parent="1">
          <mxGeometry x="497.72069820611273" y="356.2885460301742" width="11.939029327613753" height="9.273729900011517" as="geometry" />
        </mxCell>
        <mxCell id="PY7oa7wBQ1f4bU9Xa10v-14" value="" style="shape=stencil(lVjLctswDPwaXzEgQRLkOW3/IzNxGk/TOOOkr78vVA9lEZK2k5tMY0UC2AVAHeTu7en+9XiI/PZ+OX87/jo9vD8d5NMhxtPL0/Fyereng3w+yN3j+XL8ejn/eHm4/n69nyynp+/nn9Mbfl9xrVKWCRX5z3UlUuJ/C1+u9s+nl4V9FUqjfaGU9+01UI6DfQiU0j4gN9I2AiqFtg9IjeIIsCMVcCSx94UBIAYAR4qV0ghISqkAAFMrAyDbngAQMuXRh1JJwJFCJM0DQJVYISDwAKiph2EbIN3FGdAoIx+UZNyhCcUKoqTU0ggoMKyyokZLkHyZKeoIsDAAQAkUxDstiN5MeaRGLV1Q2wCL0uiDKaoBp7V5wU0SBNSo5mLyAAZ5qJmi2yH2zGwDjJtltUPcB7RAMXqAgCpjzPFhFVLggxGhVU9vQYBMyQEyMcjDtEPxAAVRMh/SSD6jBtK0RSlUD6hAolMeXJS0q3wv00FXAFA1jAjcPABl2tjq6W21Feww6aF4QABR0kKRfR4ycNoA7PSQqCIfLOrNA1D11tpdXLA1g5ZV15mWvrINSCtAhFXD0iRrTYM8NCZZSRS1XaukdVWXCtJ08j1u8godySQaPaCC2mqA6DKd+/SxdyReSRT1hw8D7ABt7NMmWljuM5Ux0xZoBkWgSK9CMyDDxp4D1fFITakAgLXd7ADzynZjL9RGiQZmYsQNP2DZJFDBDqkPFotRAzEj9Jl20dYVuDyfdsE81ByYyljEbjVkO6S9Yi3GPUYd11ekrKRoFiu+qqbSibiXMjce2kyMaCfqh4aY4Q42Mjsl2MAYgTgL96nlxiKoNZWeo9nprqW9GllHe4YDrnGGxdkLCJGV1JScfUDVaBb6zR5OVdKvOQt7JLLsp2GGVwbToPr4oITZVZL9edCgalVkZa/o/bNmZ0L0F2yLgFcyDvBuaxs4mYV+y9qzd8POPC7tBehDd+3/29vD7WL/eHp+vn4XWP7vPwTY0vUjgnz+Cw==);lineShape=1;strokeColor=default;" vertex="1" parent="1">
          <mxGeometry x="461.84399992423937" y="384.9878978087279" width="20.769240939073597" height="95.60164944156236" as="geometry" />
        </mxCell>
        <mxCell id="PY7oa7wBQ1f4bU9Xa10v-15" value="" style="shape=stencil(rZbLbhsxDEW/ZrYXEklJ1DpN/yNAnNqoaweO08ffl9PBwKFssyjQnSzrjMTL58QPb9un181E6e18On7d/Ng9n7cTf5qIdoft5rQ722rix4kfXo6nzZfT8f3wvPx+fZpPzqtvx+/zF34unApqmSlKv5adLEj1z87nBdjvDh+BjtwdIAwKgJwSUnKEGpHvE13RyQMKSgHAEH9DJ2gAmNXDk3pFKfeBltGyBzoS3wdKg7LX9aLDTcJkbH28goM3cUZSDzTkACADvK4mXA2MsFCozTuihzdkQvU2mNKR53IBeaB1kAY20Bh+TdCDYGJ7klfJfBm5WgpqdUDtIVA62hWQKQgmRvHB1BI4CtcC8X5ohB6o1AU8qFShQZLOoSbecbFKBgzRqnEG9YI2pFwOw1sbygCYDJGsFcmXMiskHBhdCcUbbVZFKomOss4ySBB85SpFFSkA6LowyVoMbydQBQ85ndAiwCrj4OkCbf8RMC/5dLCMSoGjr9pDjr+fUL3F9kIKzvOYzwoNCoY1H29uifWsyD43GTmIIZKxueW1BN5+vYz1K4GC94hAx/NR2yky2pvWieB20sja7dfzVpGDHmKVin2xkzApm6IOxTEcFpRWb14a7Vpe7/X+f5x4/g7Y4jJgvez2+2U++/j/OJDZ1jLM8eNv);lineShape=1;strokeColor=default;" vertex="1" parent="1">
          <mxGeometry x="484.0541152549647" y="430.05403322171924" width="4.597717668025325" height="13.001993490325958" as="geometry" />
        </mxCell>
        <mxCell id="PY7oa7wBQ1f4bU9Xa10v-16" value="" style="shape=stencil(7VjbbtswDP2avBKSqAv13HX/UaDpEixrijTd5e9HL7Ab0vYJtpcBw94ch8cSycNDShu+e909vGw3KbyeT8fP22/7x/Nuwx82Ke2fd9vT/qxPG77f8N3T8bT9dDq+PT9efr88DJbD05fj1+EL3y+4To0HUAo/Li8ChfTrxceL+WH/fGWuf3Nx9p3X7TlSEmPP1Nq6fY7++0KtrtuXQC0b+1iogAVKpxoNYNhRWQdUoZysB4lqWAe0StW6nBMFsIIwZbulEikDH6RTtE7XAFfoukK1AKEiAFAp2zSoV5LXATHoDoJN3BTp5SU6lW4APd4CVLtCnwK3BgjWiV4oojA16g5QR3qthYltqrtQ6ACQfap1kxHUW08UxQNQAWnUxUbpKjXLiOYJ3qdvLAM0im3mBNoTU+w+TBAQZ9xQ+gGZkeAJrqlOINVNXXQ+MBWQiFY8mXSTCXBDC6bbFWrGuiEjOSdAGut8zWm2ZFIZiChxTMmKfZFRq5YB1YulAgLIQ1eqiQckxG8mtnRVgU5ohUJ95nTHRV1dWDUMSDaE2KlrgSWnK4hlq6org6Y1yIalRtM2BhKnUeq2RFuiglYIJDZKjaGSqQiwLaCWKYIoKZc6+xUqZquI94EB+bQeSvZRyqimG0X2eQggSkNPs2HVTGcEaKOLVyWKxh+VmeyooZkG9SDJS6XWQ0BSWXynLgKbnAj17AEoStqC0qymUX8Yuix7pxlVXPNNTsOakWqIFzLV1o62pDFxA1CjgkXA9bhbANUlm7hhrENC9ifzj5sd/s8/f2v+me3pX59/dIVqS07pijp7m7VR/QTcUvLCVCsFwO+hIp0wNciNGv1hN0/6vHxYZD9s5KmLLR9fZ6OxHhZRWFkTZ30YDuDA6ajDhq3RyOOguRxWX3ExjVFY9nnBnoEGsD+VxQjH3DS2s/f6hKNM8KOPzofA3TCSchoaxh6/Yu5OrXVsdmtfd0d7eHcQKVhGM+yDaTxQTFyAp3r2M16E5sXPwdNVzgpvanXmSEV/8x7pprk+vF9ZPe0Ph8uN1/X//opLX12ux/j+Jw==);lineShape=1;strokeColor=default;" vertex="1" parent="1">
          <mxGeometry x="488.74009257689227" y="435.55136711835166" width="24.03274707140713" height="32.12790092871114" as="geometry" />
        </mxCell>
        <mxCell id="PY7oa7wBQ1f4bU9Xa10v-17" value="" style="shape=stencil(lVfLbuMwDPwaXwnqLZ273f8o0HQTbDYp0nQff780DNkWZU+Rm2NzQnHIIanBPX0cX94Pg+WP++368/Dn9Ho/Du7bYO3pcjzcTnd5Gtzz4J7errfDj9v18/I6/X5/GS3Hp1/X3+M//J1whVwaQZb/TS+Y/PTi+2R+Pl1W5taQK429o1L27V2gzI19ppz37YMl257HBIp+HxAzWd8AvjhRNpRaD85RBCEXQ6H14MUDA0AinxtA8GTdPsAwE7csRXEBEEVYbM+UHLEBADlBmzfhgQGvOVJuacpzWJuAlMiZBlAseZAIyZxvgy5SLBEAmGxsARnG4KS420SsmN5GJE1TKVTAmaS+XdCABDInxabKTwDOAoClZHTUCUmuk5AADMicAILykCgARUgMOnMJVp/zlBVLkQKiNXZBxxrVNkA4yRqAgvasFTR6QABLsfMQEMCT6WhlUBoCKEkDIqhWH2qIq0xbkAfx0NdSBsUnnS7arloDZIk7QAIalTxwp4eCMp2oPCjq0PFaKCONSrPsRI2moiioFM1rwZJzXgMcFrVTvS/VRrKnUfYaALuAr21oVd8RHSkSRw1AtSEa5V6jyMOjAJkQRsUg7RaNlKzXE5n2DAQhUy61tMqgDGiO+joOZgBTACzlottGspRB0IV1tUbpPMhD0r1S9pMEgpZVQZX30ki2WbJ6AxonAACEosvbBrg8SGPKbaZNwourBN2yZAzsGkaGnKK1anbbvrbqOYLK8qY56xxYeHzuttxaJTvmap80MMGsdSZbPuiP8xVhuTOgHcmQico8gsNIZKzMEe+urtaLuUHzppbVYo70HnSZ4VGTdP+Zp9u2sCrNizm6Jzx4V/vSXB6Wa+Hb6XyebpXr7/oaKa+mK6h7/g8=);lineShape=1;strokeColor=default;" vertex="1" parent="1">
          <mxGeometry x="519.773068665892" y="416.17304068004626" width="26.01587676607619" height="87.79377968567462" as="geometry" />
        </mxCell>
        <mxCell id="PY7oa7wBQ1f4bU9Xa10v-18" value="" style="shape=stencil(lVbbctpADP0av2p2pb3pOU3/IzMhxVMKGULb5O8r1zV4d+HQvBlbB13PkQZ5eNs+vW4Gdm+n4+H75vf4fNoO8mVgHvfbzXE82dMgj4M8vByOm2/Hw8/98/z79WmynJ5+HH5N//A+46KS5gnF7mN+E0j474uvs/1u3K/sc6BUKnuvlNNtQEnkpQJIpBBuA9RRTBUgOlIQkjJprADJgkQeLIA6hxwpFgDIpHUORUj1NsA7R85VCLWYAEILhboPmkhQTBZBncQUpQONyOR8DVBywEMuxKUFFH8bkArl2sOqDlcRNn2srQvUuujJcQ0ocPxCWD6vyhQiAHjyTSMiFeTBUWpCCuSRB+k8MEVQpVAo1gOuHnYuJuJm+qwPoKwpLqQ/D7guHLklA5o+AyiBnHYhIVZ7yqVLGpTV+sq+Les/Tl0H2DT3jUMhaVulaTQECk2bgw0fAFgRYzMaNt6gccWT1Mo0EQjpt1+09H85mpgkdDIAXESh2JHao/lOXdZnwb0O4GWaV2IZgDIZR0PDINMFkMN1wJ2QaspNEw8IYSqQaoAtIejhPJyrNaco6Y5Bpp4B7CBbzA1HJUHBZ0dSN47NJ+h0t9oTpEO3RCN5QAbfqp5QQTrcZsuU0CGzaPSZOJRA7N7aVVff3atl1saeQfSc26sH09iay509Wmvc2wfEmNL29s6OkqUcF3tF9nm5ny7dhf//ycP2vr09XK7ol3G3m4/w9ff26rZX88Uuj38A);lineShape=1;strokeColor=default;" vertex="1" parent="1">
          <mxGeometry x="485.78487509767365" y="437.3883863394676" width="5.997432381467888" height="33.70388639129396" as="geometry" />
        </mxCell>
        <mxCell id="PY7oa7wBQ1f4bU9Xa10v-19" value="" style="shape=stencil(rVjLbhsxDPyavRJ6izqn6X8EiFMbde3Acfr4+1I11llS2XEC9LZxOCtRHA5HO8W7l+3D82YK7uV8On7f/No9nrdT/DKFsDtsN6fdWZ6meD/Fu6fjafPtdHw9PF7+fn7okf3px/Fnf8PvC85RrR0U3J/5hxj//fD1Er7fHRbhgWJQ4ZVyXQ9PVL0K94WCX49nikXFh0wtrMf7SEFvP3oqBQAaZdaATKWBhCtFpwDJUwWAWCgmDbi+4v0zGgA5UE7rgFzslnKlktcBJVPWx5obMQDUSEXXrThiVDdH3gA8BZADZ/JsAQkQj5l4AGRAjXZ93xIAqNEiOban1EAOLVE2dWAKDACZWHePlLKC9mmVvFkhU0KARl73Q05zZdYAKdkVIgaUapNG/SAA1uQraa79GqDpFarDIuAcOX1MlWHLtWthZ4DwMYOG6EnoFYRe7cYxGYCUGtG1UcwaIKVBdG2Wrn2TiBts2Sf0YlQIHnKIs56vAQyZuM7ntgYwSYuQVJT0ABCpiqhHhy2VgqkxJC3SFxG/h2OVpg5AycbCSY8irRypIYCCAWUYEDCHgd4lUPhUAxWGRuC9Hr2q4QdlgOOtPRmh4Rv6PUiZCDQyP6NY9uLjLRk5XpzD/0IMM6JTGKU9TCF5BUx7mHPtRumGSSqv8Eheh1ndwrzmB92AABJg+Og3OgAZlMHRCAAJR/dM44gAWlauI2cBQLO664rOQQjuwArdWepKc5rptepdddK1UQCVFnds/HfFfqP7b510Fw5QuO7wjY3DBkUsmFnAQTedBm+MpS+Q0+9PmRxIwM0udXHhQDySaWNuNJEa6B03z47lDQjUWHitz1NOLAMX4Gy+cmLIZki8plC/YoLzH+aCXBETzNfp/fsAx62z8sjQMEh403SA6utsh4mqAHK62dK93baRoXJUggnHm/nUXf5muDy8fTZ42u33l68Oy//bzwzy0+UTRbz/Cw==);lineShape=1;strokeColor=default;" vertex="1" parent="1">
          <mxGeometry x="221.3594194077857" y="346.5565416773817" width="223.80075735439732" height="8.10271634344167" as="geometry" />
        </mxCell>
        <mxCell id="PY7oa7wBQ1f4bU9Xa10v-20" value="" style="shape=stencil(7VjLbhsxDPwaXwlRol7nNP2PAHFqo2kcOE4ff1+qhtYrrj2Obz3k5myGEkUOh5RW4e5t8/C6Xnn3dtjvvq9/bR8Pm1X4svJ++7JZ77cH/bUK96tw97Tbr7/td+8vj8e/Xx8asv36sfvZVvh9tBOmwM3Kuz/HL+xI3L8vX48Gz9uXmUHI5EeDQqECfCBXB3winwGeSZLBR4R3VLzBO+SPo+AGfOwbnsX7SjUMeKHsIT7HAR+ogniew7sr/siA9+TjLedliii/i3jqh5vydYU/nrgaPGN8zQbvED7YeF5ZX0jKLf5nyqM/ugBfxov6P66vBVaAQWR7APUoggwn3wk2Mcj3Gj1rkMWWsChHgUHRf4+ciKGz5KxB1TOMLiWmAqJaM7kxqilTkMsG7CYadIvsqILCr5XCmIiciAM8RBp9yoU8OHWJFGVhUEAiMtVoDZAYpWITkSt5ENdYiccdCmafTOtNBgHuEBb6VVJvKZcEg8ewlgoVXgXRKEz1FEEeONmCqJEcyANz59pkkInRGSiMaVByFcA9TzJq3oy+5z2y1GsbgCM7S6TGdhBT13v2hC+UwAGcLU8NUAFEVfyoMDV1Gb+A997iURd3lMZa1gxDuVgkWLs4YITvyjDDC8SbJtXwqGtSTgt/gP+6mtjzoilKrE60eKKmQ5wsHnX9uIjP1BYv+FMMXvmGZMgOLY3PsCBjtfgMC9I08esFaaYu3QC1zIXIKR418anFzwJUASGc1XXFM1zfdEtNGCKQrr8gUAAF4PpQOSMoEnXuQ9msANB5ucvNDI/iqfh4C74uBBSP1RwXTUk1CUwTSjk3lkDR4QBRVBlsDCKe9IsVicKwaUixJL0yfsTSm8pkEGGZ6bwi4xly6EpwaSKyM5enBHihMTGtNTMeA8W2Jp0bM3BJ05RHgxTheN0mrJFLUWdZkLg2uI7dTDJFUGw61Zk7S0hwwNH1zA6qsIityiVDPiU80pfPa/vntf2/vrZLp+MH1692QvCQD3qDzmP8sUiI9PZ7wie0vixUCN5QRG88tr6Qyine5DfDeCre3hNhPJs/yeDRAN7OawYo/MwiXWJPeDRPSLD1wg6KtBr4xUMpHGG9ZZwaZGTAdmhvO6Az3Pp2+wED/XF6Kn7aPj8fX5rn/7dPy/rp+Cwd7v8C);lineShape=1;strokeColor=default;" vertex="1" parent="1">
          <mxGeometry x="409.6851415565536" y="341.8335308426715" width="62.837534335904365" height="58.486126490482434" as="geometry" />
        </mxCell>
        <mxCell id="PY7oa7wBQ1f4bU9Xa10v-21" value="" style="shape=stencil(lVhJcttADHyNrqjBYNaz4/zDVZZjVRzLJTvb7wNGGYkAyVblRtMNDpZGA6Od3L0/P7ztdzG8f5yOX/c/D48fzzv5tIvx8Pq8Px0+9Gkn9zu5ezqe9l9Ox++vj+e/3x4m5PT07fhj+sKvs13vVPNkFcPv85tIuf998fmMfzm8zvGFmsVXKgXghbgbPAtJ3jZojXK1Bp0kAAM9gW0EmSIwqJWiDUECNQEGTKFZg0ICDEqiVoxBYqp12yA3KjaGVEfe1g0isRgDfVOBSylTti7pmcLbBtKo2ywVoR6BQSSJ1qBTBi5pmboNumZiQA0lQrN1aIEycIkTiQ26ZeiSHmDJ2gMxOKBQChYv1FBSqduqaTuVBAIgcf5c2nUD71ih+A7wyvtkey0ECqB3NN/ZH/CvJht4CR5fQIIu6Z7hIyiAeuvwjSpIqOLZ4yPGuwJUqkDuAsXi8UjtNJ/B4wPEV9sBSqAO6qXKVRd4kH8lXFr4A+rLXqyneIFu8RCpGb6hDqbm8oNVixf5abAhmYrzX/kGhJopLfAFNmRc8BnVK3iBuN2QJS0OAAqnDdk8vuKGXAQssAFC8gVAhLtEN8MnjHcCVG98Py4aLIECh3H6DM8wn/+Hl4X/aYzN9UFP2dWLh2RsTDAnWE0FCzWkULGMm/YpEIAOYbYSV9tYwLbGvCtBxauKsHepaE5BzLqqONUt2qdAtZLuZ5bVOY8361XQ77l1S4mF9rM62vyy0CU4uXVlZNs40iExavBSLQJHcS1eu2Ib68v6Yh39nqx3A7QnK9UcWbmO+bxO1ujHEzNc3XumYvU049tKGzwYeO1XdFtpQ82v+Ij2xeYXqDAiWsd33/5Y3adpVDweJbT7GuP99Tq9rng0Xqdtjx0+43h7dHjE0QnvGATzP5uOV4OCE9qLw3dEiMWVI8LL6Np1+oY/N67f+nC9uz8dXl7OV//5//1dX1+dfyeQ+z8=);lineShape=1;strokeColor=default;" vertex="1" parent="1">
          <mxGeometry x="298.1683700149865" y="344.9886490303669" width="159.6451011973154" height="92.468927131324" as="geometry" />
        </mxCell>
        <mxCell id="PY7oa7wBQ1f4bU9Xa10v-22" value="" style="shape=stencil(lVbZUsMwDPyavGpsy/LxDOU/OkOhGUrLtOX6exTShEpJBLyl7q6tY9dWgzen7fpl0wR3Oh8PT5v39v68bfC2CaHdbzfH9sxfDa4avHk4HDePx8Pr/r7//bLukN3X8+Gt2+Gj5/kM0Xes4D77lRIh4PfKXU/YtfsrQoWUBZ4IUlzGO3BO4H2FkpbxHpAkHk18Bh9l/IDW9glyEniEaoTP+QYVPzhaxkcEL+MfCzCLJ44/KXw18KlCzir+ZJWnDt0Z8BlqWcYXgjyp/0Uh8wQWkEyAG4zVIESgKgiBIBiEzCegTNkBWTVKOgeMEI2mEddQEcYtZglYgaRrMA99n5cRQVEEto1RVq76pU0jIQBaQoIg28CNJtOXJHXEwrZ85oamjm3mlIx7Ik505MAb8XPCXh4wZjRf0QglKGNeFuZbVrSKOB4jfgpaps6UdSIdD29gKCKzwmQ86TfbqPp4P4hw0Zjq5sqAlvX/S6gIKFMmb2rCu8lrUNxwfcwfMT4WV89TNtpcOWRZ1lKgGD6oY5sGQrdi35BF5lBpaOXi/SWtXAs4S0r8t/Qml8HSEhXwygvOfnZi0c8aHxGNJNg+RcqPK23dF3xHK31zmSyBs6F1SAF8NtQ0GUW41WgRZmcdQ0x/GI7442e0emh3u34yu/5fj2K81I9xuPoC);lineShape=1;strokeColor=default;" vertex="1" parent="1">
          <mxGeometry x="289.5915443913948" y="413.1336813771766" width="4.783990808456792" height="11.252900319871515" as="geometry" />
        </mxCell>
        <mxCell id="PY7oa7wBQ1f4bU9Xa10v-23" value="" style="shape=stencil(rVfLbhsxDPwaXwk9Seqcpv8RIE5jNI0Dx+nj70vXkGxx11MU6G291kjicEjObvLd+/PD23aTwvvxsP+6/bF7PD5v8qdNSrvX5+1hd7SnTb7f5Lun/WH75bD/eH08/357OK08PX3bfz/t8POMa9TkBErh1/lFJi1/Xnw+L3/ZvV4tj4F0Xh8LBQRIpDwBUiUNAMD9AuNGjaTeBqREYT6hFkrghGQn1AnATDHdBuRIeQZIJVEAKNTCBNBMsQFAo6QToEVKIOjSKOf5BCUGMVT2edDat1gFcKEyX0kjBRC0LPIgTAUELUrSZsDYYhXQAtVZGlwpRQBIlOcYLKqKTiiUxQMKYKkx5egBChLXhJr6GJC8m0kjzQDBLDUvPjZpoBgMMNMqgTIoIANkB4ikINNNKc60SqYEuobR6jItuKYtcZw9gIFaTRorAMRSIGEPQJ1PF4kzeTfAklVwrJ7WCmJQ6SGOTFsqgTQM4JqASSPhK7EDMIlAloITX6WKaI0krqYLCWhkLZMsKq4gQF2wZJnGJVrYx1CQ+NQPRWOponpoi6CVAgDEsOR17HHrCJ5pMjFlVBBjflzJVVHmpA/Nq6Ju/xOg3EkZgGFXbk2U5obcmGLrgNArcgCsasEJnHobGoO6QO9Qk7czpwkAUl1yl/9wWJfkr5sHG4tz3zDJo6jNADmAeQEGd0qLmjOmkZ+JbTF4tTucdUDpdmeYOIYTQv2AKNYrkYfrA2rYUJuioAkMr3PlcwUkYVGfZjSAMwn98IvtxssdnamHf2O5U3UkBqK24T0rLnRDsK4Gr+gAu2P2hidAG1kpLpaD3dkbtkARTEDxpjZAP6hUqiMS7d66G70sR0RaB58tSMLW8d8+1f663B4uX4VPu5eX80fl9f/+K9Jenb9A8/1v);lineShape=1;strokeColor=default;" vertex="1" parent="1">
          <mxGeometry x="289.8615432659276" y="411.05718285579917" width="34.87606971740547" height="41.733336787267376" as="geometry" />
        </mxCell>
        <mxCell id="PY7oa7wBQ1f4bU9Xa10v-24" value="" style="shape=stencil(lVbLctswDPwaXXdIgg/gnKb/kZk4taeunXGctvn7wFWlmJCFTG40hTWxwOIx0N3L9uF5M6Twcj4df27+7B7P24G+DSntDtvNaXfW00D3A909HU+bH6fj6+Fx/P38cLG8nH4df1/+4e+IK2j5AkrhbbyICcz/br6P9vvd4co+MlLoAAQu6/ZEEO7sA0JYt88CKp19Rk7r9jUhpZ5AAbd1QEug3qEkEMcjjiDpPcogDyAItQOUBonrAGFwD2iM6gBimIM4IZiQHdYiKH2emZGdvElDoQ4ghOAkQjJi6wEVzQ8TmxcE0WHNGWK0GnwxsX7O9onkiaOgJktCxFVTLDZMnl7bMnPsiqOKlZ+mWpzM6QtG4E0F6QHSVDAzIKORA6ioPYcWkR2AllDsXVJWxUt1RSQLiNVRX4D0AA2D55IUBBMlmgS8VqSx11JriI74VGpsMh3BXhsQmwcNgwtgUN83JKI4zVtJZyPvMqXyNiAuXmC3z/BCGhdWjksak7oo0epVXLMFJH53/cjrDPhE3gHF1LRqyXPpqwAdWs1UXHJJZ6XYJ05vksOBkh27qU36vQlIiylHZZqsa4vA/wqeAdrvvc2hgPpMU3PFp5tIaAuAw0HHqFiPPO0VGyOlTI49LRiTHyI7TChMQ/Wm/dyxrnKWnaa3GCW6K0VHRcEWs96I63/u4xkb2LEn0GIVC44/X909P7fXw8ei+7Tb78c9+fq7XYz1alyq6f4d);lineShape=1;strokeColor=default;" vertex="1" parent="1">
          <mxGeometry x="178.19507460592058" y="439.32095410245097" width="16.25701055427635" height="16.128813626497504" as="geometry" />
        </mxCell>
        <mxCell id="PY7oa7wBQ1f4bU9Xa10v-25" value="" style="shape=stencil(lVjZctswDPwav2LAG3xO0//ITJzaUzfOOO7194Wq0BFBaTN5syUsSWAXB7ULd6+Hh5f9zvPr9XL+vv99fLweduHLzvvj82F/OV711y7c78Ld0/my/3Y5/3x+nP+/PEyW068f51/TCn9mXKUaJpDnv/MDR1L/P/g6m5+OzwtzIe96cybmbftM1ff2lUpE9iF19oE/sGfp7KOnBM6fqPbrp0gB2ku/fk7EwF7P39uXSJy27Qu5Pp7i4PpCuadL1CNgr/SU/kBSyQcASBT6E1VPGTCsgoncAyI54HLwVAZALduAyI2iGyDBHaJQzRbgwQ5JyA2ANyLXac5rOwAeVAbZW6cF8KA6CAOAwZEmmnppV9fEtQ5QmswOTOIBIA3E3dS1DijkvT0SoyMJpQEQAXG1UjQ8+ObVFsAUAAUI8kEBsQcEyoDp6UgDcW+H3HI6miOpvEHGaVhdsIAEiqS+zmwBBSTQJLVhh4KOpFV3TCAUJZV3GfIBRYkpDQCHpMHkB+ICBkTjtG97bvlgirc+EcSDt91TAR45rVIzAIbteVKOWEBBO2QqwQIqYlqGquFg5dN88DxECWecDCmaQU47vs0gC6ojKK66RTbaiI2aLa/FWQAMU1lJuYgK02cBUx83RJQ2HKwDwlA2BAJKGtRX23i23hXLQLVyCaI09d0BUIFctbNLD1iQvz5t1DZbLLcAWR0cJbEA1OV8sDPuJHmwg1OeiiUigLohLecX0kCjgBZGY8+tLKx7YLuuZJg+Wrt7EnRY8UAXWrp74ek05IC/Qzpn7C+3oWI51GP7Pv7x1r427E0n0UtJBgTr215BeulB/dlZUVe4fGjBfr+yodWDbWsOBj9Q6cWjDQQN5/a6wHDYiTYbGdZdnTq8MWewerZCxrWh2BFbzWEaso0MyippjXcRGdRixkAWaG5mcddEvWFezb0dz9Wf+yrwobn+eP8A8XQ8nebvF8v39oOFPpo/doT7fw==);lineShape=1;strokeColor=default;" vertex="1" parent="1">
          <mxGeometry x="186.33232453520873" y="492.9414165114804" width="43.51227188498865" height="85.01833679284232" as="geometry" />
        </mxCell>
        <mxCell id="PY7oa7wBQ1f4bU9Xa10v-26" value="" style="shape=stencil(lVZbcsMwCDyNfxmBnnz3cY/MNG08TZNOmr5uX1yPnCDHpP2TpcVaYBF0/uZts3pdd+Tejof98/qzfzhuOn/bEfW7zfrQH2XV+bvO3zzuD+unw/599zB+v64G5LB62X8Mf/ga7WIGlwYrct/jDhP4+LtzPxps+92ZQYKSFT4gRLeMJxiOzvA+AOMy3oFzCk8ZyFv4EBUeGags4z1EzQcRioEvwJpPhGLQx9TyR8gGngIgKvwUgMv0p+yc8CUZeK7eTfkCMviE2PrLkNjAM2T9f4lANvIVEVAnQBjFKzdoxUkMgqFQcaFxWYIQLElwDeEUI9GoFVRJgtcGBbxVBAFckwUGNG5ASUNjkCEES6Ztmn3luFQGWnZeyswgNCszYlN38zLGKqylZ0JHFINZ9qn1N0MywoMeAms+UMigg/MyI0OkQ5X8By/Rjq7lY/AXQaJr/TXC/188e0g6/slBNGqGZ30jRSDDA+a2EWS5wSoBN9NQTvUfS1f4oAyKvO1GFsQJ0qoosmM8LRIm1m8RYy3Uy2XJ1cfJwO4fJbRPC5fasS4aZDluKDGwkYhMkJoO6Oyek1LV5hknqykkGQkaA2mLhsEwhejyuTKF/GFskcVp6Hnst9txZjo/b4ck2RoHLH/3Aw==);lineShape=1;strokeColor=default;" vertex="1" parent="1">
          <mxGeometry x="220.87857001195107" y="554.5419557710247" width="7.859486609094802" height="8.184365105384131" as="geometry" />
        </mxCell>
        <mxCell id="PY7oa7wBQ1f4bU9Xa10v-27" value="" style="shape=stencil(rVfbUttADP2avGp2pb0+U/ofzBBKppQwIfTy95WbrkGyfQozfUtsHet2jrS7k6vn+5un/Y7D8/l0/Lr/cbg93+/k04758Hi/Px3O+msn1zu5ujue9l9Ox5fH28v/p5vJcvr17fh9+sLPCy5T6hOIw6/Lg0Cp/Hnw+WL+cHh8Yx7zeD3sC0ncttfX3Ix9ZMppGyCFeraARkW2AalRjgbAiXLfBuROzQIkEIOca6CYLCBTBB5qpxIsoFPibUArVGyVEpMAD71QFAuoxKAPMQQKNqZcKTfoItmsSyKpIIlOnQ1AC/e3DuuAMBo7A9Qn8KDfy5YbjSkAbpRAzbK1zfRa5wb7pHugDuqaVA+2cz0NtqzzOw36z4AOFSfi2acAlINEKnUBQCEFr9EpJFBW7hStgnqDjeNGbKdMrxQRoI6qz4BMBSStHhy9tQ8BKEgBjkud4ZzRpN2c6XGQZaus1ZU1wByEidkDBIwNpUbpHpCB4nRuBfY5oD7oNA7NVwnNSgVUq7guOGkVpMshE6Mc1IPTw/xkMwcHaBRRWRP1hYDQvJ/6wB7QUEhM0VbpzXzeJNPCBRRE94tas26I3yoI56FiQahGm2/EB0Wd4ILQkMSFJFjU2icn6kgNl1XsCurzyvg/gGmRu51VhgjXAd3PyiaQfbrHxfahzqNqfSsWypbfNcFJVrM/k5UGF4RGXK2HIpDe2qZsy5rTKMOWh2arpHVDoq66cOyC0NWdAVuLst8KKMXxia0+uPEtWA8aQLNJK7sKaJzOmW5D0qNuRRKVxZxpo27rx8TlYOIxn9cBfgbUsVY3zDk5c0QLLYc7go6Tyoa5a0CGp+7FiTiNs9z7zGUMzPcFw/C4vUg1ws4uChlhIaNfsviWx2N7vZrDhek3Mt5lyaeKv/7BG+o/zfXH62X47vDwcLlLv33vL8/66HLxluvf);lineShape=1;strokeColor=default;" vertex="1" parent="1">
          <mxGeometry x="217.17860229844996" y="551.9668864746841" width="43.38275303166779" height="40.76187853515535" as="geometry" />
        </mxCell>
        <mxCell id="PY7oa7wBQ1f4bU9Xa10v-28" value="" style="shape=stencil(lVfLctswDPwaXTEkwOc5Tf8jM3FqTV074zht8/eBqlIxYXk9vskylgS4iwU1yMPb9ul1M7B7Ox0PPzd/xufTdpBvA/O4326O40mfBnkc5OHlcNz8OB7e98/z79enKXJ6+nX4Pa3wd8bVSrVMKHYf85tEPvx78X2O3437s3jvHDnXAbwi3HWE7lBCB9AtIgIUCr4DSKKaAEDXSx0gKMADgBDXDhATTT+vAUpu6y2nFIkjADjy/Q5ZKIGisx4rd4DiqYCUoicXO0CNlEBKeialJ65migIAzvKgzNR8HSBMsWd64h7wwIGcWMB/Oa6rL1LOFhCAXAulixIQb0Ji4lVbIF6PqGetBoqgYtd2X+KZBOTPTQNLvK4AKMi210qB+fjQCFoAmRj0mmZUe2GXRAlUIJ4iW0AGKUltGZ+lFIAoVNiebdEFkBYdpWRPNVUA4AsAt2a61pzGL1QXyMJCaSWeCa+ibmbKptcKVKqoYZkdamuOdabVL3rAmfevi0mLuGhndK7eXci7QG2oWs0GmTxoB/XIXqzqkQzb08w2nRQO0OYpGTtyVIGl3hs/FdCznDNlABBdzwAWi1oHlLbeMtl0OAKSQ7AkxwA9W6VtRqE2rKDmuZidgk1Yuy30rnrjhqEAM/9v3GEUYOYCviWpYZhpHpqDrMeHtv1SMrT5mC0J3ISyGp+8bbTl9rAen23+jgTkn7m17Vc8coqsXlXuiC/BmhfOp+itIN9Rr7Z5SXecp9oO38OX+qDJH+th9VaO8r95i9eHr0+Al3G3m78gzv+3nwz6av7ckMdP);lineShape=1;strokeColor=default;" vertex="1" parent="1">
          <mxGeometry x="304.3518490208912" y="557.9407311673326" width="8.524070588350469" height="33.51213870894048" as="geometry" />
        </mxCell>
        <mxCell id="PY7oa7wBQ1f4bU9Xa10v-29" value="" style="shape=stencil(fZbdcgIhDIWfZm8zQAg/17Z9j85U606tdqz9e/tmZ0c0uJ47xP0I5JwEBl59bp8/1kNwn6fj4W39M76ctgM/DCGM++36OJ50NPDjwKvN4bh+PR6+9i/z74/n6ctp9H74nlb4nbmSKZeJCu5vngmZ6jzzNAO7cX8FVKEsBuBKrgKg9oAE8gkCbLeUhEoEQKSUDZDLeWYRKIl8MEDRmHwfyBrBG6Amyu4+kDxxMoB3jhwgYu7TVAsVkFcWCs4CTBEoF4RctKeOxHIf8IXYpikHikAIf+MNUW94AGSSaoAoFIE3AlOyeWU+p2E5S9yfQZcQILVuQOwZdJNoS9Ls3wA5u2XZTIHECqeJ9kDpSaauRiNVcAY1QhdBzeLBli5WazpkSsBLV25uRaqWRyFawTQzRRIQYirJzq5atkBqLfouwqUxLBepthWb10vrWZY6UOAeyKCCtDV625mm9gmUC4Wc3VLJMMIE1BsA2FW9JraVlQB7n3c9oMKhCLEvIM1zBPZ25/umNQ1tVEC2G+fFCC8g398O2hNQuQlVu752DBfA+q0ptnqO5JFmeuIuo9DY7KjY71UxdJV4EntifPWorW++R/dC4t7V3DlIB5cHx2bc7eb3yvX//QNFp+bHDT/+Aw==);lineShape=1;strokeColor=default;" vertex="1" parent="1">
          <mxGeometry x="285.46799746356965" y="563.4752880444569" width="4.672539772115215" height="4.665236216357243" as="geometry" />
        </mxCell>
        <mxCell id="PY7oa7wBQ1f4bU9Xa10v-30" value="" style="shape=stencil(fZbdcgIhDIWfZm8zQAg/17Z9j85U606tdqz9e/tmZ0c0uJ47xP0I5JwEBl59bp8/1kNwn6fj4W39M76ctgM/DCGM++36OJ50NPDjwKvN4bh+PR6+9i/z74/n6ctp9H74nlb4nbmSKZeJCu5vngmZ6jzzNAO7cX8FVKEsBuBKrgKg9oAE8gkCbLeUhEoEQKSUDZDLeWYRKIl8MEDRmHwfyBrBG6Amyu4+kDxxMoB3jhwgYu7TVAsVkFcWCs4CTBEoF4RctKeOxHIf8IXYpikHikAIf+MNUW94AGSSaoAoFIE3AlOyeWU+p2E5S9yfQZcQILVuQOwZdJNoS9Ls3wA5u2XZTIHECqeJ9kDpSaauRiNVcAY1QhdBzeLBli5WazpkSsBLV25uRaqWRyFawTQzRRIQYirJzq5atkBqLfouwqUxLBepthWb10vrWZY6UOAeyKCCtDV625mm9gmUC4Wc3VLJMMIE1BsA2FW9JraVlQB7n3c9oMKhCLEvIM1zBPZ25/umNQ1tVEC2G+fFCC8g398O2hNQuQlVu752DBfA+q0ptnqO5JFmeuIuo9DY7KjY71UxdJV4EntifPWorW++R/dC4t7V3DlIB5cHx2bc7eb3yvX//QNFp+bHDT/+Aw==);lineShape=1;strokeColor=default;" vertex="1" parent="1">
          <mxGeometry x="339.06797304950715" y="584.2752758374256" width="4.672539772115215" height="4.665236216357243" as="geometry" />
        </mxCell>
        <mxCell id="PY7oa7wBQ1f4bU9Xa10v-31" value="" style="shape=stencil(lVbLUiMxDPyauapsy7LsM7D/QRVhM0VIqBD28fer7JSHyISmuDmOeiypW21PfPO6vX/ZTCm8no6Hp83v+eG0nfh2SmnebzfH+WSrie8mvnk8HDc/j4e3/cPy++X+HHlePR9+nb/wZ8GlQKGdUSn8XXYiSfy/8WOJ3837i/icSYuPVwrpc4DaAewALPCEFqmKAwhTagAgVKMHVAoVACoVDyiZCgI0auoAmohRSo3U11ADBig139aqVBUAMtXgALaDeGiBxBNtbUiAhyqk1TMdjMsAEIGqR1gfEgBoIR4AQg0BEqknwsrKDNWXk+8r9zOvAkoj8SmpUAYAO4GzF5OSFFjDqD5LUmCXoi9ajHwgJuOh+JGTSBmkZFTLAAh95zMx8TCjiSKaIBswL1cplEBKNhDVp1Rs5FBKjYrXd1mH8CrgQs0r1QoRNjA6iMm0gZ2pDTNnbUJVp25cK8DcFdiAucSg7/c+XAeknvEFABVtPRmNRiFz3waIdvNdebAaQErM3SRWqiM1pI2unB6fCwVgfaUb4xpvNxBggUfP4EYZ2Fgch4FtPIB3r3dHj7eKkHV/ELZliDzM/McbjN3pCuqNowvHBOtlql6k9nkQXkiG9nzBbhleJMSgOZEpenbxrRbL+P0AR/K7L6qv423x/nx7nHe75fV3+f/43LOt5anId/8A);lineShape=1;strokeColor=default;" vertex="1" parent="1">
          <mxGeometry x="352.8757554838776" y="557.286984185602" width="13.080866125697867" height="8.050641267774154" as="geometry" />
        </mxCell>
        <mxCell id="PY7oa7wBQ1f4bU9Xa10v-32" value="" style="shape=stencil(7VjLctswDPwaXTF8gzyn6X9kJk7tqWtnHPf194XqUjUgaZ10cuxNcRYmASwWaw3x7mX78LwZgns5n46fN993j+ftED8MIewO281pd5anId4P8e7peNp8Oh2/Hh4vfz8/jMjx6cvx2/gNPy5xwVFzY1RwP/98kijy708+XgL2u8NVgG+UWAWkRK2BAKacVEDxlAsISMQ6gDNVvx7QKDaFb/INYR1fKQaNz9TqOp5n+EoelKiQN/dpvQSL+Kl+He+dI+fWAyJxnR0Q1/GBSp4lkEEHZngpEMA7qgYfyYGEHQWdcG1UQIOnakz43E98Jd7DBs/uw5UCIJDkWzQ+UQX9knoavO9Tt4x3lDXjUoET4GvvTw+IqfdwmRGNmj5hZC0YyhTJ66GUuW6Ac1l0IhpWUwMnMHfd6QGZAsC3Qqy7jIemMRU2eNRkmZGsp8xTQniRIa970JVyDV/1/QtUlStRmMaMAujAeIBJIFDEAUnz1Ofe9bUSsS6pkCKCQZMemG0jzEWTI01uhkWSNCD2qFRsT2B0gqQYbA4BBSRKetZkYaFplgBXbB8cyiHaHGS8URuSXTj51oXYMvVGTS0vbk1m1MRzcN0IK2I2eId4Wq1ei7Igf9DIaXzAlGhWKTJWijbvlweOaMQbBvmuHasXMlOQcAckY0Pq0nu+WlJNCRkbqHbcL3A9mOiEtwbIDnaaRWHi4bLtcpamMUAFFuNqfFTyfVSXfVegoJdg9n1TL69Z8UG6rOJ9KxL5Yjc/B8qgSoteFhzw38v+i5eF+AUvC73jgpcFnHsXLwvq+S5eFhBUfKO+PztI6GK1NMv+BvcXV8ma0bHCX3+yfL1R3wqtr58m8HrhIzcuOZuAABeaBDTr7ArosZxftQ7VrjPLeKGYIUW/4ZoKmSYwvn+164b7VK/+XDGqAvefbIpqCuqhCgmr5x4NWd/52I+vLVCAt8o+mhB8pbe9aHlFgDz8fa/ztNvvL6+Frv9v3wPJR5d3SPH+Fw==);lineShape=1;strokeColor=default;" vertex="1" parent="1">
          <mxGeometry x="366.8403927564798" y="571.992354639558" width="48.15924406669501" height="15.081459236258524" as="geometry" />
        </mxCell>
        <mxCell id="PY7oa7wBQ1f4bU9Xa10v-33" value="" style="shape=stencil(fZbdcgIhDIWfZm8zQAg/17Z9j85U606tdqz9e/tmZ0c0uJ47xP0I5JwEBl59bp8/1kNwn6fj4W39M76ctgM/DCGM++36OJ50NPDjwKvN4bh+PR6+9i/z74/n6ctp9H74nlb4nbmSKZeJCu5vngmZ6jzzNAO7cX8FVKEsBuBKrgKg9oAE8gkCbLeUhEoEQKSUDZDLeWYRKIl8MEDRmHwfyBrBG6Amyu4+kDxxMoB3jhwgYu7TVAsVkFcWCs4CTBEoF4RctKeOxHIf8IXYpikHikAIf+MNUW94AGSSaoAoFIE3AlOyeWU+p2E5S9yfQZcQILVuQOwZdJNoS9Ls3wA5u2XZTIHECqeJ9kDpSaauRiNVcAY1QhdBzeLBli5WazpkSsBLV25uRaqWRyFawTQzRRIQYirJzq5atkBqLfouwqUxLBepthWb10vrWZY6UOAeyKCCtDV625mm9gmUC4Wc3VLJMMIE1BsA2FW9JraVlQB7n3c9oMKhCLEvIM1zBPZ25/umNQ1tVEC2G+fFCC8g398O2hNQuQlVu752DBfA+q0ptnqO5JFmeuIuo9DY7KjY71UxdJV4EntifPWorW++R/dC4t7V3DlIB5cHx2bc7eb3yvX//QNFp+bHDT/+Aw==);lineShape=1;strokeColor=default;" vertex="1" parent="1">
          <mxGeometry x="443.06797304950715" y="569.0753246655506" width="4.672539772115215" height="4.665236216357243" as="geometry" />
        </mxCell>
        <mxCell id="PY7oa7wBQ1f4bU9Xa10v-34" value="" style="shape=stencil(lVbLUiMxDPyauaosy/LjDOx/UEXYTBESKmRff7+anZ0BeUgX3CaO2nK3WrIHuXnd37/shhheL+fT0+7X+HDZD3I7xDge97vzeLGvQe4GuXk8nXffz6cfx4f598v9FDl9PZ9+Tjv8nnFcKaQJFcOf/yuZRP6tfJsBh/H4DlCUGjtAoBCux1fZJKDAIL5RFhefScH+TZf06/52QgSopNUBYqUIGHMIfYoUiRtI0Yi9RmqiRgDIfYZsWygAcA8oDZatpl7WqlQAh1JIswcUqhkAAukmAyKdE8XiOVRK6TpAGyX1KhVqCJB7DpoW934MWK2zVjpQARx0o5LZFamUmaRrh0SlAsC638qBCuBchNSLFCiDOtf177d4BgTMBeoJWBlRuwmJ35/jsvIxoFD2zROFKlDIuq34hpayGOUaIHeSMtTIjtQ5NSsx6udI1Reh2ABAU29TZWtYBrJauzefwQqTgUpfBkx19YWehEZz0kZWZ+2A7wazPnvWpnQFKRqp99LkLjQAFoYrZ9MZHCj28TaRFBjDhkM3kBq8GDYXia6aXYlP/jypUQC+i72eYiMTxKfeExLgfKy9PtaaDXiIhdjfCYwJfPk58gmAfby9fh7Hw2F+PL3/v38t2dL80pK7vw==);lineShape=1;strokeColor=default;" vertex="1" parent="1">
          <mxGeometry x="437.6534565299496" y="551.7194177355973" width="9.20839548084723" height="4.61908830981497" as="geometry" />
        </mxCell>
        <mxCell id="PY7oa7wBQ1f4bU9Xa10v-35" value="" style="shape=stencil(lVbRchshDPyae9UgECCe0/Q/MhOn9tS1M47bJn9fuVcuRjlvJ29nrAV2tZKY0t3L9uF5M8Xwcj4dv29+7x7P2yl9mWLcHbab0+5sX1O6n9Ld0/G0+XY6/jw8zr+fHy6Rl68fx1+XHV5nXKWSL6AY3uaFnCnVvytf5/j97nAVb4BQBoAEYr0NkEKZB0AsJHwboJFqHABMAg7QQhqG+EAh3I5vgZrf/x+l9XjxEgnlDOIr5TbubwoBwq2RyAioxOAEDgvDRVOhluARceScYmd1iwTXEdBgFkylMAJEqKIrBYpO1koKAJZnHkmLkgCrmpH8lcyLAFCVsvN2pCQAkKmNgFQoglRXs86Yh6ik6ATptbIAzL4NXqmk0UwJJs5Iu4KuXed1Vdm7NXZO6/GZZKQcoETaKKuLF+Sjhd6SA2KgaCu+vSguf/U5ZmsIqBKaB5hCCdd/ccUZMIVKzVGulFA1Z4qudFJfWQewT4JUrNJnATZmeCz/am0YyGqV5XynCbYwLr0ldoClMoHS4Q8tzDKjgANz7+vvnR7PHu3Wv7pSBVfKviGZe5GVLKvj6Gk2TMF9uE+yRVPtfX81finFJT7CbvRhTtVKAnIW/P3NFApMwRTHjJXSh+/664V03L8wNaBn9r0xK2yOn31N/T/ePt6fbk+7/X5++V3/7596tjQ/E9P9Hw==);lineShape=1;strokeColor=default;" vertex="1" parent="1">
          <mxGeometry x="436.83812271759393" y="573.5033252208818" width="15.959390754554306" height="8.450058587071226" as="geometry" />
        </mxCell>
        <mxCell id="PY7oa7wBQ1f4bU9Xa10v-36" value="" style="shape=stencil(lVbLctswDPwaXTEgwQd4TtP/yEycWlPXzjhum/x9oapKA8raJDdZwhrYXQDkIDdP+7vH3RD56XI+fd/9Hu8v+0G+DDGOx/3uPF7saZDbQW4eTufdt/Pp5/F+/v14N0VOTz9Ov6Z/eJ5xgSnXCRX55d+bTJL/vvk6Aw7j8Q1AAknxgEIatwGpksQewHUbUBq15AFMDWTQQoUdwEi17fjGJNLHBxAvpF6jTAEQaCZIJ1EiVgBQaj5BLCSoIpOoOUB6h3IjDZ5CpoQyKCVvgtkSgQlGmj1ArSREOvYqqZIwsPm1gAXQwtK81wGZsu8Lc55Bb2uk4FVSsx7IWhuJOkAVqiBDrVQ8h8JUgEq1rJwukINlyL4km9gEZJ04eNJBKWKV2Mtalxq3bOhECpCy+cyeMi8Jtxqp+s6Txcbr8Zla7vdLQcOjPQFj0IBCNm218yBTBRQCc69pfmcnmUhdIyVSgfPZbVXrlIBICDVPwvZsRD4wJa+rzScjDgYonwHUQMFzmJQGgPXZY4AIem99upn5Gch65fxk3K7aG2cZKthiud8Y1r/IN1n65tW2tnC6zqA/GTRQBYveZsXH1wjHedXZJS7T8bH4HOGWX9WTrB4Qv+IrQgU4vNLTHEHrbuWXVYjGZtUPdj1C5+anb2wfANjD/wviw3g4zPfLt9/7C6W9mi+jcvsH);lineShape=1;strokeColor=default;" vertex="1" parent="1">
          <mxGeometry x="473.5535216330388" y="545.9906790152068" width="19.36347262287586" height="4.8708432062730935" as="geometry" />
        </mxCell>
        <mxCell id="PY7oa7wBQ1f4bU9Xa10v-37" value="" style="shape=stencil(lVbbchsxCP2afT0jQELSc5r+R2bi1J66dsZxb39fttuNg8YmzZtWyxGCAwdNcveyfXjeTJxezqfj183P3eN5O8mniXl32G5Ou7OtJrmf5O7peNp8OR2/Hx6X7+eH2XJefTv+mE/4teCIUPOM4vR72eGKpn93Pi+A/e7wBpAJqTkANbRyG6AJ2j0goQeAJut5KyAhU2DfIG20DyLoDK3OPq8HXLdXsLefkxYBLCHJ55TCnFJKSB4hgtIDF32kLRdUDu+UPKDU1ed1QEHytKnlQQIAgTygMnLEs6KqB5jPIIbGYF8YVaBBXmsDeYA2lKCUakbzVFv1UgTgMYbcIUHQBhh4kPoeoPq0coFEQWd08eWaoZGHBvZXUkhMg/iYCRxcyHhuY3+GlUeQoX1Clq1SyZ/f0GvYCuTPNwXjCNBHkrmjRALQ0T1npprvdOfgoQhyBNCx2VTCZjPRK76ya1p93lLVQfWssDSg7cMAzUg+6EtlXR89GWUAVNTAA1mn+CsZMy0gjnjt9susiovVSo29hxZqmCJ5B92yEPBmY8A38zztAhUmqO/l9irLV+1tVHp7k9R/AnXDfhhUxmLEWVrF7bWwSyhGhDzM5ho2goCHTjPBDu5vU9LnX/I6VG7wW7y2iGUg0IoPv6f+A2CLy/PtabffL6+/t//H555tLU9Fuf8D);lineShape=1;strokeColor=default;" vertex="1" parent="1">
          <mxGeometry x="484.8285147107356" y="566.1342524835889" width="14.541276220487816" height="5.426085294388486" as="geometry" />
        </mxCell>
        <mxCell id="PY7oa7wBQ1f4bU9Xa10v-38" value="" style="shape=stencil(lVfLctswDPwaXTF8AuQ5Tf8jM3FqT10747ht8veFqpEiwNZ2epMtLgWAuwtwyA9v+6fX3ZDC2/Vy/r77fXi+7of8ZUjpcNrvLoerPg35ccgPL+fL7tvl/PP0PP1+fRpXjk8/zr/GHd4nXEpU64hK4WP6p1Iuf//4Oq0/Hk7r9YFiNOujUE7bgNgodgNInWoEAKGSDaAE6hjAbFNIlDIAdGrJADhSY5B0omZDkkABJJ3EJy0MQ8oy7zcDWqYStgFVaxIsQCCAmbr4L3DfBkii2GwOBVZJXydLDRaqDQCUarZKXKmikISaTZrzXIa7gBZ9DpyIBQDqHUAAemid8i0AfKHnWV8rgICydiZ2gAJD6o168WUVEFIMymZXVyEBJ9c7iTtq1VSFMQUniIizVm44yWXoM133szkoHzP4QlvIuQKgMo2KTB5QQUjSiW9yYATgG4CKEIQ0RuxCCrBKCnD2zY0S/kKz/YGxk2kOzQmizHXbqpIzJhU1Mlc9h+ZyWKxq66S785lIHdF7kfDqCwWz1Ws0U0WARtkpTp0HAVRxLgftMcD6FNBtV1SJIi7dB6CQ1I2dprXXIxNQ9lsuNWxMI5csvdUMGwBU5aYl38rb7jfe7luKpiUgCZ2PXONVtnRQpqht8SbrABTUqFryqUICmH/K3DNX1lrQCOdrNDYgsH+gYvfX8QoZ600z0fkNDRq6v5WzDoioPpGS5Wlk6KqLdJd4iAEj9DStB2doX9mrJs2N6z5DfTEjnNrEtxwtJTIuL7BACewel9nmcz0Si1K5iF8PTlYPRvx6ZKN6V3BzdoQep9tVvx5JUV+LrU+aO8PW3F9sfbR9ImX972Xqn+v14fPm9nI4HqeL3/q9v+npX9MtMT/+AQ==);lineShape=1;strokeColor=default;" vertex="1" parent="1">
          <mxGeometry x="510.03296515616125" y="548.4955206970292" width="18.925362632939596" height="38.331582011098135" as="geometry" />
        </mxCell>
        <mxCell id="PY7oa7wBQ1f4bU9Xa10v-39" value="" style="shape=stencil(lVbbbtswDP0avxKSqAv13LX/UaDJYixLijTd2r8fDUNZKNsH7Zts8YiXcyhq4Ie3w/Prbgju7Xo5/9r9HV+uh4F/DCGMp8PuMl51NfDjwA/782X383J+P73M36/Pk+W0+n3+M53wMeOqJ+8nVHCf858YKM1/nmbAcTzdAXIiiQaQmbhuA6KnXA1g8pm2AbzwUDNFEFIQKsECKsUAAJ5c7gECQvJMWSygUM7bgELcpcDkBERExbIgmRKwdxSKsS9CAuJRext/cc3jVjwdyYEqILk0CTT7lKGKtKCdg+SpAgaUMs9Wp5UKqqi07ZsHLQJD2VVnAUwB1FSF3ecglCIApF5F2kwJhBS1rFbYhSmiXtNGsR7EU0IATTFZgFAFZeVC1SqvRhLggZW4rv2lXQjrxGmv2aS9c+QcEFNetLO6KNuASqEuckDEkQuLIoH7xZGEBQvQ3lnlTTSj7ml3z52OIlBq6iuqQo2A5FV7xLFu207QkmU0RCJFm7Hag+7PlZyVqScB55dIwd6n2vuAgFIplc4eKU5UL9zFg0aa1KbHZq8iB+frtOjOLy2hdfuyqI9eTqgDKnnLmC9N5OuScwuR6pBAnKmLZFWqVzKDLtMkxAJYpwTyENtMugGk+VwHfPex8wWALv6/rfbj8Tg/ze73+7eY/prfcfz4Dw==);lineShape=1;strokeColor=default;" vertex="1" parent="1">
          <mxGeometry x="495.81873124103436" y="546.8079635648114" width="8.978435534409755" height="8.44724874239796" as="geometry" />
        </mxCell>
        <mxCell id="PY7oa7wBQ1f4bU9Xa10v-40" value="" style="shape=stencil(lVjbchoxDP0aXjWy5Zue0/Q/MhNSmKYhQ+jt76stdbqW4TB5WxYd++gu7Ubu3nYPr9tN5LfT8fB1+3P/eNpt5NMmxv3Lbnvcn+xpI/cbuXs6HLdfjofvL4/n368Pi+Ty9O3wYznh1xmXSOsCivz7/CJQ5L8vPp/Fn/cvK3Hx4olqQuKhDeKNmlwXj1TjSEaoZiTfxuODUgTydtrIPmYqQFv7dzxfjGG7Lm/aldE6DPU19SSMAKUMLgit26MDcqMYgYUStVHlUihXYKJAZfRBTTgiGhUZfczdLRcBKXsdGqaUhXi0kgbo5qyk4w2aqOh1gNkkjo7TQgocVwOpo9QogBtq8aGh2HHNVGwTpQAAFqzJK42s1JTaqIO9QUqrdMbvAIHZr5OnayYtAFApjTeYZwoG5OQBAvxggNo8IAArLX51lEwHEN4GyBOgIUqNNH0IoCQyUcKAUialQcYZ4B+BFSCB4AvMxDx5DnPSqTBBu07hWiqMbwNk8YCEtQ7VAwrQ2jxXywRANzSSNAFQBtWeLytARpTq5Orae8zVlJuUZmTW2iNh5bh6I6mnlEvI07VHzgqAauVipQnACGB+cJQyLK4GaOwBqMlZLMUw3XAjWuccBX13yQfxAEHlW3t+rVMU3HA5qVFl+jhi6YIjKeuUguxkbc5ND6k78zIg+EKjTIo6ryWMa9WZMtChRYpj+C09AGSEqaijlVaGuzZvBNfctZ9xeaLJxHXiBKLD5sjkbsCNMduA4gARjnFJfOs1S8PlofhOakMRGlCi9t6/mjcCuMEWCD8+VBhM4T04V/O3ghsC+yzN3Heiy44jGXVOAdZvm43diiJ9YLlMiMJYl2zJQSsN97F2vWKBZJgKgO04BfiMKbntAeZa8C0aJ3/01sH7WPTKMiQTSaoTx2TcZsW9R1wRV3HiDMjYcO7JMIybiQwqQNPeb+Ig7JOviAxrSeqFY2VIQCZR9acnYJk0G7ICy2QfwQwb9wc/oNwUt4f/32qe9s/P50896//9tx17df4uJPd/AA==);lineShape=1;strokeColor=#FF3333;" vertex="1" parent="1">
          <mxGeometry x="431.4057932582857" y="248.98772898463358" width="96.23400295181318" height="139.38995453704376" as="geometry" />
        </mxCell>
        <mxCell id="PY7oa7wBQ1f4bU9Xa10v-41" value="" style="shape=stencil(lVbLctswDPwaXXdAgs9zmv5HZuLUnrp2xnH6+PtSVaQaVLRtbrS8Sy6BBYFB7172D8+7wcvL9XL+uvtxeLzuB/00eH847XeXw7WtBr0f9O7pfNl9uZxfT4/T7+eHETmuvp2/jzv8nHg1IsnI8vJr+qIBPv/58nkiHA+nG0Lx8NUSFDltE1JBKJaQkAghRmgwhBAgRFLwEEuIASFuE3xFSIbQROawTXAZ3hKKohBJEd7euVZ43cYrqg2qE4EIuQKy6w9w5ACHaC9QEzLBC1K2eIVQ/NvpS4Ba2ilepA9ocAyvFp8LIomPoNoE5GZrgnd9AnLbgSRY590WB7X4E8sFRJuv5rhK4hPnmrrRowSfUGwJZKX3zUje4pvFif4Csfj2DgjH2/uWDKlMT+wKxqGQ/Zt7O3ycI7ARz2TzWwsSiWeY3XtTXyxfCud7fOJ+6/B5Vrjl505PgBaG9139yj/qt6/HCEfr683tC15ofgW581tEpO9V788WMf4eWj+0eoxEz0fxLqBYQusxrIv5VcvQikxOCIJgS7iZsJArNwHOEpzStpcyqi3KSHvGutXL/Iq9i1/PEryH1WUOuNmf4XOPb54gKWglHrtBAsr01/kJXEyHwPTUeWhY9DgIEXTT1BdGpKPNe4xKH/a1qLFXfejWYzMhmtZhbfMUzcMqb+p5IlbGGGdMJumjU+x/ENri79D8dDgep5n79v9+yG6fpgFd738D);lineShape=1;strokeColor=#FF3333;" vertex="1" parent="1">
          <mxGeometry x="457.7240768111162" y="243.22787844394827" width="35.4366154561485" height="9.175097969484" as="geometry" />
        </mxCell>
        <mxCell id="PY7oa7wBQ1f4bU9Xa10v-42" value="" style="shape=stencil(7VjLbhsxDPwaXwlJlCjpnKb/ESBObdS1A8d9/X25XWi7orBj5FggN0fhrCjOkBS144e3w9Prfhfc2+16+br/eXy+HXb8aRfC8XzYX483/bXjxx0/vFyu+y/Xy/fz8/z369NkOf36dvkxfeHXjHOU4wQK7ve84CtV93fl82x/Op5X9kKJe3smx9v2PpJIB8gUw7Z9iJRDZ88kwJ4T1do7RClt28dsv+8oyrZ9KpTF2DsUn0LC1h74k4XEG/+RfQlUentdqMBez9vHR2A8q6eSLcHJA0C0GyhjiOGaWwAXhtWlDAClOdAAyVMsAFAplP7MKltAmgKkdylXKoAFBRhVFAWgNHDOnroKVRQmzcN+Cw2cRAgwytDAMfBJAUksoOIdQq9tXYkIUKhEC8hArQqI3gIqojrbKK0ivYVIwW5R0CEy+QGQEHNCOVsAymkFpIE5VJQUwCaumuYoTGIzYspCtAM3BxaBZ2J0Bm7/XgCC1ac7GEAiRoWGbasqkRiJKZLvK1NhXGiiJU4BAZ0hUXQW4JH4hFywAHholcbgElSr2H6oURK0Q7ZJrTwkFCUFGJeklc/NBOrlrVqCABmq6918CEM5dkgayd5Kyp1KlgbiatPvlpbiAPA4H6q3h4ZlhttFZx1WRJxKbSQOVQ1u+bWShuAiIObQEe8Q2+VxLW+c02M+MCZuLAIe5UOiMqRowCk6FgFBTIu9Yk2FDAE0gbLlIdxpWe8CfFxPPq4n/9X1RIbKtOhxcweTEcoDcik1+a9miIqqa7JdLoWmls1iaeagQgFJY5l6lklLnUSz4sLroj5VF9CS9gPfu+R9u3RtTaPe9KC2sDXtcp8PygtIuGma7llIsNqnIaPxnTJm23S1+gMKdFI1LVRFAWqYfi4anUIRebFl2AdKaLy3rw0e3wFCc3eREG7QoellJTkHCAi2GIU7jaftvrYHeezb11b2qJu7NsavzosIdu2dYGWPxh43+MOtum7Yu2ztsf9GDxrhCP13xh8P+XXki7VH7cnZW62uoBnsvc+L9+31x7+3zJfj6TQ/ha7/b98+dWl+N+XHPw==);lineShape=1;strokeColor=#FF3333;" vertex="1" parent="1">
          <mxGeometry x="470.96890555105756" y="230.0918904661604" width="78.04864007702508" height="48.035510383164365" as="geometry" />
        </mxCell>
        <mxCell id="PY7oa7wBQ1f4bU9Xa10v-43" value="" style="shape=stencil(lVfZctswDPwavWJ4guRzmv5HZuLUnrp2xnGvvy9UDR0BktbjN1nCmjgWC3CITx/7l/fdENzH9XL+vvt9eL3uh/hlCOFw2u8uh6s8DfF5iE9v58vu2+X88/Q6/X5/GS3Hpx/nX+M//JlwkUobQcH9nV44yun/i6+T+fFwmpk3ylGZZ+K8be4L5azsfaBctgGhUg0KEDxF4FDyxEkDGjUAyIlKUYB4c3IVwPLZKUBK5ACgVAr6hNQouW1AZYo6SzlS9KAKgYJ2KUsdGAAqJVO3Sg645J3r3zuCmRw6olBgBSiuk2UriKZPKBkWohbyVQGqo1oBwFEygEwN5LVIN3gFaDgG4UbVQbdEAbjEklbNjSYtBQC5kW8W0EAdpLCmDvcAheJjLjGxJpPQq6ITmLxJq+StAUBepJWpAGoIoGnZaPleDDZLqZNlC1BNliJlFEMhNgAhPDqhdo9ngALIJ9QwwiQAVAchn9EZiSEigCcXbJY8kG8BJLZ1CKDjBMAmBu503DzBxFBwi0oMhnwVjqAxS3qiSD9E3KJp0aIVnDBWWmdpJrebZFo0dUFTjhcdJEKCAbYhREgQ4Cals0LAE5ZNnbEwiWws2FdRQ7DdBYTfUJhKL+wM4JHOPArgbOlaaxf09RHkyeuGqKkLyTpgsZ6UhqditDtZkbSCwonHRes9N7xtsF1PGG9MMmWLrrQ0YQNZkpxU3XLSUx64VNhufbIHBqQCuW+RtyWuUkPUiFZnUuhL1yogShJ10DH1ZXx9N2bK+gR5g4L2qSfxpjOFEqg02zJ4Bwu9kNbcubhq7uyAy1D0nFWkBLdo19fTWzr7MrdlrjmKp7OYV2MeABvEd5N5OHOcpYKDzngbqoN59zbvDg7x0GX80xyVKVjSuM6Kddr3/XjmDCD9g/fTu+by8HkVfjscj9NNev7dXp3l1XTtjs//AA==);lineShape=1;strokeColor=#FF3333;" vertex="1" parent="1">
          <mxGeometry x="546.1030406816706" y="224.11152845680112" width="62.33015265167478" height="49.28400733308865" as="geometry" />
        </mxCell>
        <mxCell id="PY7oa7wBQ1f4bU9Xa10v-44" value="" style="shape=stencil(lVjZUtxADPyafVXNfTwT8h9UAWErBCgg19+nna1xLI3dKd4WI3k0UqvV8ilevT3cvNydgnt7f33+evfzfPv+cIqfTiGcnx7uXs/v+HWK16d4df/8evfl9fn70+3l75ebxXL59e35x/KGXxe/WKX0xSu435cnWWr7++Dzxf7x/LS1zxKTsvdVQiYOSbJ2CE2apyeUphySkx6IQxMX9BWCeBJS8uKLcihhvGLfIUmo2qFLLsShS9Uh1S4hHTtkXFo7tCyJ1KHEkfXVoUmuxw41itNpbVUqyVJtEpoNKfRjhxak6rQ2Ty/dimSNvVokkjq0PgJYHRxFa3e2DrlLIVnCCdG0Q5DELl0k6BMAlsgu7aXrfgDgaR3QX942UHbEIdgWDVE8CakACBreHvglly5rTjYkkCKBNyodtUOWRgqXna304kBYA1n3ug6+0BPAGsnbSwdGM1PHIa2R1CFMDYQniTnEkfUVGml0yK7DErHT4PNSSB18GklcHZpEBr7RXivxgYvJFZBzHRCg4klS86DRjX0jN0aVTTyANrkw3ham9xMYIX06PwXtSoje2VlV1icH9l73AfjIk3w6cTqeXCXS95vWx2Cp5P1enKG7RKc5qqmZIscxS/ebRpKxD3xwSiuTPalXEd9tPGyS1zFfNvdl9m2qF8YytTdiB/VybN4MJl/tG2VeSB0dD/CWSH7qpHT8GNIH/dh1PtEvhfZj0fdd+pGJOwlTv3eCZz/+u7FnnAt2yva+TAo6G8+iD6i9M/Wq48SjftfxYxIySeQsfwKfrH8/at9G9jYDo7KBEYZc2qgVRrgQAtmolTp6Yp9RQMj6hCVpBHK4g5lJnnPWoq/0CX1I4X1Mh6kJ6IyEVkkadHkotn17FMGAjkrMMg3JypV+sJLUoy2YQ7WqAGKrMBSB1nVEqCJLKXaTpmsWHe3LHm3jR2xchHj7JLby2qv7QHVTL4NLWd36tBtgC3QE2r3aE+qqj45u7TSdNg5trHBmmcDGkwi/Y/swlet59N8+NrDNaGwg052htdpCbDK97wF0miP6eMfRsmzy2guNKRXbQcuex2SIszoE+zvjAGwTpucq37lASiZNBdqHOQQ7+kH1VPpOcAXXMxoI0xq4bDDMoVlsgDcoEzu7QkU6bWFv6gY1yHY6P8TWGtD4rHJkX3U8qDuLJ9h43MjA0cqY7PuZ2sS6F6u1J52zgMjaB6bGi5X7bpT8yN4spJ6ScJzkdRgJOLIvOp+Rqv04raOJ4+ejHzf/a48f/76k3p8fHy8fYrf/t19e8ejy1TZe/wE=);lineShape=1;strokeColor=#FF3333;" vertex="1" parent="1">
          <mxGeometry x="639.9782435917432" y="234.16497879487974" width="48.347131560258504" height="38.90169041892136" as="geometry" />
        </mxCell>
        <mxCell id="PY7oa7wBQ1f4bU9Xa10v-45" value="" style="shape=stencil(lVrZbtswEPwavxK8uXzu8R8FmjRG06RI0+vvu4QrRZy1RvCbY+9I3Gv2YE7p3Y+HT9/vTtH/eH15/nr3+/z59eGU3p9iPD893L2cX/XTKX04pXf3zy93X16efz59vvz9/dOQHJ++Pf8aT/hzwXlX4gBF//fyRRfnL998vMg/np828sn5NMs3F8q+fHGtzvLV1b4vL64klC9+Xz4ElwMCciKA7HIxAPaG5lpEQCIqxOCCvwmQXc03AeSK0ikQr0XnjdKRKJ3KFT/4RgDiBADFdeKHHFzzCGhE6ZxdFARUEnpZI80cKbM3yBJqG0AQEtzemDW7TvxQgusZATnTNxRQ2rtGjpS7C3NoSHORJHTWn2cdJHI/lCU2F0ATaqWcXJ4TqCUXSSxpaJQ2Aap6hng6ddfnI9XsAjGrRmsFgOf5oCQwH6ko7zGe1J/nN5RMHZc0WmemLGvS7gHyDFDfN3Yk5YjZ0+r7zAFx1kF9Xw8As6eH77kObQ5v9f2B4yDj1PdCHJc1RWcr6SNoeEfXIwL+P2KPZmTOafU9oxklgWoATOmyltgVUF0nZq0JPa0AIbxU1YgGwMp0qxjeA0COpKQSxACI0kpbJdzyhh6cNAMgjlNyT/EmwOrXDSAQs2ovhYBEle42vMNSiPeOlGYraW/AaGY0CnON0xatsjcU5+do1f6mszckpMogLjGzRldnHUKhPah6GopiiDSBRs2EfomShsr7Wb4tpHA9VvvSQa7lxEViUxEs0oGmpwiSWHCJFFD7fE97MZWPFeQLy00T1/5IXwgJT0ub2tMLyhN/qXxC+cDlawH5xM7fkeK9qyQFVL6jvzwbelQeUobbX8/TQb6zeOgY/9El/nxoLTRFuT1DA/nG40fw+QfyBeULs6cgs8fli918KWhPFp+yzEIbf/HnQzwHOkyNfJz5xNPCNPIR5Q/0rSYfuT27kefxEE3+8nwvyD+Rx2dD/mHzwcivBPLUvzfK9/XntXdf2qO9AgY7iErri1ZIP8ezLP3anrzM8RDCMuXt1WwEZLrWGXMuMFCjnf7bgmLTRnje2cA8NNYkrO8Q1GFUbfYGUwW02WJ9R/Br2K+ITEdffYVtMdl2qps5U2eDzloV28QKnT6utMlCN2xXGnHhbGdbfT6+t4p0N+ZzcqQxrhgdGgMkbBAUwDJOR64ISne+Cgq46FQAq+E6e0NN0FGVDRPZ6KCAzgZTj12CzraMtofV5zbnaHwXXNQcLQgEY+loBWE2nbnTUpjWWWOl4kBpYxzJLGoY9alfgQRKpd14MtFa1n51b/8F7ZTGL6uH6ldgjdqWirq3SwVybZFvCSsuzFrjWxHBoU4CJYGx6ZzfIIUWuRKXJeIK6Mva4zrAJJByYWeLmrREznanzda7ER2nZa/z9S4CVlrYNWtEQODbKdSh0asCDY1kbnhYyRqL/IyAcnBVUBHQ2O1FwfZQASw0xnWHUZrtLMaFCigtdIK8cmUjtOUbl0LhFsC4djJHYivqcbFVDYDdhIUrSrO9vGFKlWfEV3CT2oUHBlK3tk+eZI83cdTpGOzxxmnT0O0A8BLs6AWpobwQH69bk418I3HtlyuHjTwzqMfVXecMadpblWeXHFZeU5ukmT2P0HWo1VcoFVl7Cq2b1l8862+9LD+W1w9vN/P358fHy8X+9ne8ydevLv8FkD78Aw==);lineShape=1;strokeColor=#FF3333;" vertex="1" parent="1">
          <mxGeometry x="848.5946520491984" y="831.1465604329001" width="202.53316034396676" height="140.66860390154466" as="geometry" />
        </mxCell>
        <mxCell id="PY7oa7wBQ1f4bU9Xa10v-46" value="" style="shape=stencil(lVjLctswDPwaXTEkwRfOafofmYlTe+raGcfp4+8LVUPZhKx1fVOcpQRgF8BKAz99bF/eN0NwH+fT8fvm1+71vB34yxDC7rDdnHZnvRr4eeCnt+Np8+10/Dy8Tn+/v4zI8erH8ed4h9/TOUeujoeC+zP9IJEk/fvl64Tf7w5XeE8udPhaybt1fCCOPd5R5HV8tPEUT7Ws4zM56fA5kIR1fKVYOnxiShnk66i47kCMFD04EFq87QBrjKiikUpfoiAtqdsHMnGfc2AKoKa+UM3dAV8pIdJUFX1ImlWK4ABb2vQBICKlzaeeNhLAMjvK3NMG78+FQh9PbA+8rbrURDyXlATkq6IRU1EqSKVMXgweUTyKvr+/FgAQVoRqNfiIuiBT9gbPdR0vnuQhvNIvBu9A/CJWcI48qKfio8VnwK/ii+ULNbHipdenzjHUw27Ob+56XCB9gBkrFHGBsplbFICAFM/B4AWMOSXMxJNhwoo3BGRc0GrroxMANLAUyjb+hOIpLdxLPQtoAMUHy1cBDb/Eh7YXVuMxE5QKqs8iX9c6+j/rqQ2J4lnw5doiX8PXRQPjhmQbf0R6W+jZYz0s+iXA+G82pEMELzo+3kvYTJREDk+UmAwebYzlRMwUcAObiZuhz3oY75utumpgkO+4YdjGjzfY4v4M6qMbUqyDQA2vG5h7PRQo0BTbAro4mgjiUQfBRtAOGmO1KNlYAg+dK3vbYuocEQWaofHqo3MET1DJJzO0Cpzq2rTVWFdHCVTJC/k+pJEG5HWLLSurM0NeNzUZzweEEpoUbMsaC/RaSpPxcgmbV2n2f1aqtgLYZbpq+oBKau76tlRtp1W+84rFPV5cWz63hWe99LjcQDxsvbTOmoBURDVZPKI4ND5nvEANBfuuofgKX3FLj79aJisHzK4flwlIwNmXh3EbQrwx64r3YJe5BcF4drm2eq8IzhBv5oro7AWCWKxiSe31Zg3/0DeJ+3i9uHwAedvt99P3k+v/2w8m+tP0sYWf/wI=);lineShape=1;strokeColor=#FF3333;" vertex="1" parent="1">
          <mxGeometry x="1025.8549493897826" y="776.9374133949314" width="103.88274283011606" height="45.61183643809272" as="geometry" />
        </mxCell>
        <mxCell id="PY7oa7wBQ1f4bU9Xa10v-47" value="" style="shape=stencil(lVrZchw3DPwavbJIgOez4/yHqyxHqiiWS5Zz/H3AKJxdNpc91ttq1JghcTZA3umH7w+fvt3fif/++vL8+/1fj59fH+70lzuRx68P9y+Pr/brTj/e6Ycvzy/3v708//j6+e3vb586sv/64/nP/oa/3+Say74Lif/n/wfNhfDfk1/f8E+PXye8xhlfXCp7fHUtzfjsQmX4CO+PLrc9vriqM15czQwfyoz3rpH1ZBfbhK+mAb/HJ1dmfVbTD1lPdBXen52n+DDvt0ZXiP7VxTDj7Ynu8eJUZnxwSfb44HS2b2kuxT3euzSvv5hFyPu9kzzjTcOJ4f2szxKpvxl+3m8Rl/j7Z/sW8x/in37sbuBzc0LfH2f95HKynjbHS04jIjb2avP6sw4P3PiPn+Mly4l/RtivaYDgzdvrhE/VCfGHgvGSLEJJPFp+m9efLF6YPweX54BJ6oQEWFCXYEUy9nRbIGHKTWEkpdsCxRX4gnkJEehOtwh4oiSL+jJ7UTS9EatZmtOCAswMltfFo4CQPKF+pPErAeZ4qpiJotUeYmlNrikKsNSiddl0pbkuelcyCihZUtRRe68EPPtCWgQK3UPMi6XLqBC3BSoGqAkEYum4MAr7JvMlE6jwBQtREkA3BGRk/a3AHA9mmXTyhVnAbN9O9jCrVU2tXABcQ3ne7mqdvVUPKrATgMqvQkPUBMIcQBaDmXlrxRC9sL2dQAKB4pQZzrLGbIdeL1g8FCyHVsAyW5LVk9lbhfOdLjCrNTRu6Yp5yfK5Z0tqSDGsYhTuS21Wa4iDtd7mqAETmRUxIUnASmCY1RqEJoGUFoFADZcKVtFGk7exCgXe7CpRqrEc2LLZkZTQnJE3mNFItOXFBplm+qLICxNNkiVjJKRBXG/j2yAtR8qjkVZl+OQR/KM63sbH0fVd8KzNsa4mC+AZLawV+y6hNaEtPFtGo3obH0YBOBx0ZI7beMU+IdD9WteqiA9E/83MP6/HU/9sFcuBp/Fl+IbvZ4ywNVy/p6TW8BnxjDUbvibAszbH8Mv6WdvS8Q30L8xeDfuiow/Y4QviWb4yPPRFMjLkDu/R/+n6K/I6oW2m4aN/z3oqxpftl+mnILk+0WdBAhX4+gtyjxN/KOgPJ/52dKE/6c91sIafjJeFO53GowTEc/9JmB+Ev79gfMWTeIyAZ2Oo4JfBSTgLgIYOkd61geAqD0gwGO/auwEwYIQUyHfjjQkHwGe2nowFW3gBi0vDMej+ruBBwuJzQyuoDd/P5iztGGFcCIonCaIuCS4OXr0jHFBg4qiYO0KDvTpN6FVwMJmGAXeELCXAs4AxwpeQUEZi37IMevlctVg+qIBn8ZLLmL5cCHciCfcyVrwQeha/OaA/B96jpzrarqsWg2k05RGAV10PC/m0zDKtr2JFydokD19INOtaIwasJmQu4Jfus1CebgIKWmq0qU+LX1giZZWgfwESnY5v7gSgNFkoMFcygQKpLvNNL77UnZUL6DL6YNNJE8ggIGNQvrU0TGOUEqgkSAD1OFraCYTZcFq4HWRs8SeHXKtAH6MxwwlGXBR6uNgFYJypNGukpW2NmU7FuqXnmO4DTh4PYZkSMyYbb02JKxs2ZqSmfQJEfCmmpbfnZ5KmRFlm6WxAFI/m80rgZDQeKwqwUaBm7Ke7opmA4sFYTzxMwCMh6Ynn5IhiOTVhFKanrWUPjDN0igZLCjTNdBLeUICNiUJF10i8r+v1JqEAG7T00eJyPsbqdBCctFhdZczW6n4FtWYaog1njam4wqgY1p/EoyGPUefBxAKfWmOq78NH4ni6HOFGmocVk2TO9AqGYGeUecoT1E8+hhcbPFzZKJ62IoLMv8jJlQRgzsZ1WUIV1L9xacZgFMO4HNlsY1/o1KrnhRYJkvUOHA+jk6ouE33mcUHmwJ/MhtG+fTjLWqNl1F75bADPJK3XExq/wGkbZwmWIID5W7PKik3wWGEbZ5wh4JatPWfde781ANeoKp+HLNcM+sSPfwH6wT5hYGk0LFqyDoypNaCf9pkKF0BDN3r3qmf2igIs05lAhiGQ53OysJwLXSbHO4GwqKnRCyVtwbPTuYaXN7oZ2CRxFPgrPOM577/Ad4a3H5fbgl8en57eLhte/x9vF9qjt5uJ+vFf);lineShape=1;strokeColor=#FF3333;" vertex="1" parent="1">
          <mxGeometry x="1110.0540192923686" y="592.595206218115" width="195.71842401556341" height="186.99065695592367" as="geometry" />
        </mxCell>
        <mxCell id="PY7oa7wBQ1f4bU9Xa10v-48" value="" style="shape=stencil(lVfLctswDPwaXTEkQRLkOU3/IzNxak9dO+M4ffx9oXqkCJCzrm+yhRW4wOLBgR/etk+vmyGFt/Pp+H3za/d83g78ZUhpd9huTruzPg38OPDDy/G0+XY6vh+eL79fn0bL8enH8ef4hd8XXOwUwohK4c/ln0yh/Pvj68V+vzss7Rs1MfYxEjcA6FSTBVRqwENiahaQKvTATGIBXKinzwE5kFTLOVIJANAosgUIZcChFIrRAApT4c8BNVBvFtApAQ61UuwGUDMxAIhStFGqmnoBAKGQDUDmzFwFtETVRkkaFZC4JpMQJkDjidVVQG/ULel+A9B9WHumCo6kgGYT1yvMgx6pOIBQBWHtq8TpJ1A9jBRt4vSQtYKw6mt7pBjCVOXXEZUCexctw1RL8YAUASCsSGhNAdYqnbxKhIBUq1ybbWS9UEL6bsS2C2ikBZHWIDoOiRh4GAvCAbRXojwU31x7oIqO1Kc2tABkoA09cV95EFQQdWoSCw4F6VsTt4oSCqsqR1Y1GoGHhZoXqRagPnURXKoFylVfe4DSQo0mT99bFERGrMOq0WivQqmWKx46qCDtpT6ueiQkV51BwZMu4EhaQW0dVlxydwLSpLWF+gLIQ13tAlqEBQBKo2QrSBsJkmtJfj2RBMfix6owD17sIa9I1wRHCovnUIQYeOC5ScyACDOdkp+juVAFYY1lmprzTtYhoHmxMl42tN6sVvULSElxWr9m+7k5X7UPU/XOM1Qogj4Z/IZ4Yy1etTC8dgdKLjxwd5uLZGYLh62OMWseoXy0PduzB5ja6kOjZFCjIy7OHO0ucZ6Q/2mf/IzFx4mZWr+Drd5u/PYFg6m66tYe50ovYP62g6Vw7wXvpr0+fNwmX3b7/eUyunzvb5/61+Xmyo9/AQ==);lineShape=1;strokeColor=#FF3333;" vertex="1" parent="1">
          <mxGeometry x="1027.1534814885863" y="813.9684404466816" width="21.545848923363337" height="50.19386863615432" as="geometry" />
        </mxCell>
        <mxCell id="PY7oa7wBQ1f4bU9Xa10v-49" value="" style="shape=stencil(lVbLUsMwDPyaXDWy5Yd8LvAfnaHQDKXtlPL6exSCQ+UmYrg5jtaWV6u1O1q9bNfHTefx5Xw6PG3e+/vztqObzvt+v92c+rOMOrrtaPVwOG0eT4fX/f34fVwPkcPo+fA2rPAx4hxBjAPK4+c4kyMgfc/cjYBdv78EABYVHxDYLccj+KTifYGSl+MDOL2+KxCKkY+HwBqAJkB2aDIiKLgcTwxeZyTrGweOBM418WTkkzK4Nh82CpC58ndxYGsDzkCupZSMEhQHhG3NOBgAhEitKBIbKYnG9BkiQjYAIsqoU4oF0AAkD+wVIAXIRpkDA+lGkMJgNHRBkJodoikk0UFT6OTqnvO01rJOZ7aVKp2gEwqhVn6hNVFzKkeKVudU1UyyEJItHbWNI2bz03pLBKGWUYRsrC/pBk2oq+axVGLXdjIafIqGUuNdQN4UaUNQNuvFAUpjXQmcRejkbFNCyWR0HmBJ7spcRKPO0JDDKxUlNi8E2aLJKadax3lAgKh1zdJ6hkOytLLWEYt/WQ4pl5QuhOxpATJWi54AbEojXTnkBXHzYi2tOEqpljbfDfJbF6LkOjMPkJyuTm053tDu2iKF6WzdzeKguoHY7qD/v0b+Bsjg9/Hz0O9249vp8n/7WJKp8aFFt18=);lineShape=1;strokeColor=#FF3333;" vertex="1" parent="1">
          <mxGeometry x="683.5279874068829" y="1008.7208166988835" width="4.393984594593121" height="5.992559908912881" as="geometry" />
        </mxCell>
        <mxCell id="PY7oa7wBQ1f4bU9Xa10v-50" value="" style="shape=stencil(rVbLUhsxEPyavXZJGj3PBP6DKky8FWNTxiTw98yyWceS7AZX5baWp6V5dM/MIDcv6/vn1eDMy2G/+7X6Mz4c1oP8GJwbt+vVfjzo1yC3g9w87varn/vd6/Zh/v18P1lOX0+739MNbzPOCoxMKGfe5xMHnz8P7mb7zbg9sZeI4Bv7UC7bh4RiK3uLQu7PEc5U9gbGXLYvBtE1/vw9OG/vEVLtj1lePA9IiE3AGoEngIJQe6Q5i3IZYM0xxAURHJKlT5jap5gRGCAi1VXODpIIQCA1oDhkEnUusHVeS0YmUWe/hHgEFBp0NvB1lkqAEColDboGKLmElDr5tg5J4IlLybVkChmGudQBvJLpKpdcXK64GHSjN0EkAp3SWgM8FVBfN9UPu1+JkZsGYK9iXoKNnNq1FuxRsd8Uj1gEUoMz+vQJwvXZtICoUZEk9U0mKZFYlrSNxZrbBZm5pH2ykVuiLvWN+CQP/wnRDwdtGoaQr58+GgVTaD/eFBDYfEAutX2EJWyKKF2fZIXzLbtzoHp2cI0a9EVSNoNU8yJG5MDs29ETllHxPXvv4Yj/nT8isMSfLl4nlEJdPq2HJ/539VIKXkMHQSbNaKJbux2xberr7Us//q1uj+NmM29+p/+3q54ezWui3H4A);lineShape=1;strokeColor=#FF3333;" vertex="1" parent="1">
          <mxGeometry x="742.4234712022053" y="1001.9050186824436" width="15.164688585279919" height="4.190084705425306" as="geometry" />
        </mxCell>
        <mxCell id="PY7oa7wBQ1f4bU9Xa10v-51" value="" style="shape=stencil(lVbLbuMwDPwaXwmJ1IvnbvsfBZpujGaTIk2727+vDEPeUI6n6E22OdaQM6Q0yN3b/vF1N7B7u5xPL7u/49NlP8ivgXk87nfn8VJXg9wPcvd8Ou9+n0/vx6f5+fVxipxWf04f0x/+zTgfKLoJxe5zfuPIzS8e5vjDeLyKl0yOTXygkLbjYyRWE58pg/+XRC6ZeM/EZRugjlK0gEge7KCBsjcArjt4AMhUbImEqSBKSsnuECIpBmgwgOTIBwAolLOtqlBRAEjENocSKSNKTNHqXOsWgdClkLdJ16xEAEAoSA+IeRuQC6m1hlZzAUq5GsF6r7qrIABT6MxadwA6ZE/eUkqeEkOAWKVDbmW4DZDWjov5AvkIk1ZrDRbyQOm8Ml9toAR2KKuRUVtUkDW0r5IXSgCg1RpdTysF1NOJ1FJihWNMV5SChzp453oh6miDnKr9bQclbWltzZm+R7n11FaZii1T7VqHlKuDqWu5Qox6NLS5tQjh8PkwIfRHiFgdnvssEjqCYpuNS50yeaQd92lPhUXDj4JVrjgSIESiYAnl1Ox1O4N2fFw5Q8Hk86t4hkeca5N6sWqtMeC/snYQaAvXvi4zSZrXN/h38VMFQL58YyIFwD+2G8KiF2y00oq30CcBZ6df0XftbLwd/8Mr1ffxdfH//vY8Hg7z9e/6e3/fq6/mu6LcfwE=);lineShape=1;strokeColor=#FF3333;" vertex="1" parent="1">
          <mxGeometry x="775.1901120076141" y="997.1922596231539" width="14.8148153980992" height="4.886406084031705" as="geometry" />
        </mxCell>
        <mxCell id="PY7oa7wBQ1f4bU9Xa10v-52" value="" style="shape=stencil(lVbLcsIwDPyaXDWW5eeZtv/BDKFkSgkT6OvvqzTjFMdEITdjtPFKWq1d0eZy2J7rSqvLtWvf6q9mdz1U9FRp3ZwOdddceVXRc0WbfdvVr137cdoNv8/bPrJfvbef/Re+BxwGMKFHafUz7Giw+m/jZYg/NqebeBPAmSweIfj5+KDAUBavQCkh3oGLEz5O4BM16DweFWjhgMgH2PwAhGgEQATCDED8CZoHoBpTTAirwaNwRFFUF8BKAAvkM0DQaec+QIHN28CFC0LWwUwpMckgZO3DtExcOClpr1OfRgBnFeYBzkHMO8diIaHVjgBzSp7ACJQcgsqHwYa0MwvI1WdYTKsoaQdWaFyZNFKakAfLasQBKvum0kTNCmNCCHBBebmQPKBbI230SYoPDg8hWKEHd+bT+FSEBy2A+0hCkUqT4TIrqUqFjYUIQaDU+2Qu1ehFSr0R64lRLlhxYd1LiPJy4OagZJXF7cNZGGHg0IDKs+BSo2T3ybRufE8JanKJ79gHm/R7N56SmMdG88AKjcYkg1FJTrTV8iqx4IVxLqVtQK/hQySOZ5Ev7yiBP9dz8lwwYKTxn/bLQxTCSz2Q6L9rnzvL8bz4f1vtm+NxeJrd/j99i/HW8I6j518=);lineShape=1;strokeColor=#FF3333;" vertex="1" parent="1">
          <mxGeometry x="831.227684138646" y="991.5076696484698" width="10.674991336127505" height="4.184733945247899" as="geometry" />
        </mxCell>
        <mxCell id="PY7oa7wBQ1f4bU9Xa10v-53" value="" style="shape=stencil(fZbdcgIhDIWfZm8zQAg/17Z9j85U606tdqz9e/tmZ0c0uJ47xP0I5JwEBl59bp8/1kNwn6fj4W39M76ctgM/DCGM++36OJ50NPDjwKvN4bh+PR6+9i/z74/n6ctp9H74nlb4nbmSKZeJCu5vngmZ6jzzNAO7cX8FVKEsBuBKrgKg9oAE8gkCbLeUhEoEQKSUDZDLeWYRKIl8MEDRmHwfyBrBG6Amyu4+kDxxMoB3jhwgYu7TVAsVkFcWCs4CTBEoF4RctKeOxHIf8IXYpikHikAIf+MNUW94AGSSaoAoFIE3AlOyeWU+p2E5S9yfQZcQILVuQOwZdJNoS9Ls3wA5u2XZTIHECqeJ9kDpSaauRiNVcAY1QhdBzeLBli5WazpkSsBLV25uRaqWRyFawTQzRRIQYirJzq5atkBqLfouwqUxLBepthWb10vrWZY6UOAeyKCCtDV625mm9gmUC4Wc3VLJMMIE1BsA2FW9JraVlQB7n3c9oMKhCLEvIM1zBPZ25/umNQ1tVEC2G+fFCC8g398O2hNQuQlVu752DBfA+q0ptnqO5JFmeuIuo9DY7KjY71UxdJV4EntifPWorW++R/dC4t7V3DlIB5cHx2bc7eb3yvX//QNFp+bHDT/+Aw==);lineShape=1;strokeColor=#FF3333;" vertex="1" parent="1">
          <mxGeometry x="715.067942531929" y="1005.8753734936756" width="4.672539772115215" height="4.665236216357243" as="geometry" />
        </mxCell>
        <mxCell id="PY7oa7wBQ1f4bU9Xa10v-54" value="" style="shape=stencil(fZbdcgIhDIWfZm8zQAg/17Z9j85U606tdqz9e/tmZ0c0uJ47xP0I5JwEBl59bp8/1kNwn6fj4W39M76ctgM/DCGM++36OJ50NPDjwKvN4bh+PR6+9i/z74/n6ctp9H74nlb4nbmSKZeJCu5vngmZ6jzzNAO7cX8FVKEsBuBKrgKg9oAE8gkCbLeUhEoEQKSUDZDLeWYRKIl8MEDRmHwfyBrBG6Amyu4+kDxxMoB3jhwgYu7TVAsVkFcWCs4CTBEoF4RctKeOxHIf8IXYpikHikAIf+MNUW94AGSSaoAoFIE3AlOyeWU+p2E5S9yfQZcQILVuQOwZdJNoS9Ls3wA5u2XZTIHECqeJ9kDpSaauRiNVcAY1QhdBzeLBli5WazpkSsBLV25uRaqWRyFawTQzRRIQYirJzq5atkBqLfouwqUxLBepthWb10vrWZY6UOAeyKCCtDV625mm9gmUC4Wc3VLJMMIE1BsA2FW9JraVlQB7n3c9oMKhCLEvIM1zBPZ25/umNQ1tVEC2G+fFCC8g398O2hNQuQlVu752DBfA+q0ptnqO5JFmeuIuo9DY7KjY71UxdJV4EntifPWorW++R/dC4t7V3DlIB5cHx2bc7eb3yvX//QNFp+bHDT/+Aw==);lineShape=1;strokeColor=#FF3333;" vertex="1" parent="1">
          <mxGeometry x="807.8679303248978" y="994.6753612866444" width="4.672539772115215" height="4.665236216357243" as="geometry" />
        </mxCell>
        <mxCell id="PY7oa7wBQ1f4bU9Xa10v-55" value="" style="shape=stencil(hVbLctswDPwaXXdA8AHynKb/kZk4taaunXHcNvn7wlXFGLSN3igKSzx2AXKKD2/bp9fNxPR2Oh6+b37Pz6ftFL9MzPN+uznOJ11N8XGKDy+H4+bb8fBz/7x8vz6dLc+rH4df5xPeF1wuYDqjmD6WHULNfze+Lva7eX9hXypIBvvo2EtDysY+IfF9+9oQrH1glHgf0MoIUA8hOIAGYQOIglJdQGoGkAMaOYA8AkoGNyfpimBDkrKW7XZVFVAMoKaVx9u0FZQBIJB0H5ATqg2pFojjIUVUK4waEJyyxoRmARIg5T6AG8gynZUZRxpcRqaTMuOExBWcrDQCojg5xDWArtaK7HhIPcVeJZfozIjWnkFOyqVr/7M9yWFNMqQN52cnYRVBsKQ1t6Itjfb/CahVNEuy1picgRGoH9hZFgSn25qArSxKcF00Wtu9K1VjcpSqyhcLqOwChJAtDdqe5PCggEJXAMdD4SviEshhTpU3hKTUeFQnRrLSu6DmdvfwSIS6yN4E0KuAxyTYmWIhjZeDlsmbxII4DOI+mm9HhDxISc93MqC1e/sIy4hOP19rW5XnJMzr5XoxwILX/+M9oh69eyRENDshA61j/B9AF5+PjZd5t1veKpf/x8eJbi0Pm/j4Bw==);lineShape=1;strokeColor=#FF3333;" vertex="1" parent="1">
          <mxGeometry x="852.5000469762865" y="992.1734518055168" width="5.441520690636935" height="4.542523154048922" as="geometry" />
        </mxCell>
        <mxCell id="PY7oa7wBQ1f4bU9Xa10v-56" value="" style="shape=stencil(fZbdcgIhDIWfZm8zQAg/17Z9j85U606tdqz9e/tmZ0c0uJ47xP0I5JwEBl59bp8/1kNwn6fj4W39M76ctgM/DCGM++36OJ50NPDjwKvN4bh+PR6+9i/z74/n6ctp9H74nlb4nbmSKZeJCu5vngmZ6jzzNAO7cX8FVKEsBuBKrgKg9oAE8gkCbLeUhEoEQKSUDZDLeWYRKIl8MEDRmHwfyBrBG6Amyu4+kDxxMoB3jhwgYu7TVAsVkFcWCs4CTBEoF4RctKeOxHIf8IXYpikHikAIf+MNUW94AGSSaoAoFIE3AlOyeWU+p2E5S9yfQZcQILVuQOwZdJNoS9Ls3wA5u2XZTIHECqeJ9kDpSaauRiNVcAY1QhdBzeLBli5WazpkSsBLV25uRaqWRyFawTQzRRIQYirJzq5atkBqLfouwqUxLBepthWb10vrWZY6UOAeyKCCtDV625mm9gmUC4Wc3VLJMMIE1BsA2FW9JraVlQB7n3c9oMKhCLEvIM1zBPZ25/umNQ1tVEC2G+fFCC8g398O2hNQuQlVu752DBfA+q0ptnqO5JFmeuIuo9DY7KjY71UxdJV4EntifPWorW++R/dC4t7V3DlIB5cHx2bc7eb3yvX//QNFp+bHDT/+Aw==);lineShape=1;strokeColor=#FF3333;" vertex="1" parent="1">
          <mxGeometry x="867.0679730495071" y="984.2753979077381" width="4.672539772115215" height="4.665236216357243" as="geometry" />
        </mxCell>
        <mxCell id="PY7oa7wBQ1f4bU9Xa10v-57" value="" style="shape=stencil(fZbdcgIhDIWfZm8zQAg/17Z9j85U606tdqz9e/tmZ0c0uJ47xP0I5JwEBl59bp8/1kNwn6fj4W39M76ctgM/DCGM++36OJ50NPDjwKvN4bh+PR6+9i/z74/n6ctp9H74nlb4nbmSKZeJCu5vngmZ6jzzNAO7cX8FVKEsBuBKrgKg9oAE8gkCbLeUhEoEQKSUDZDLeWYRKIl8MEDRmHwfyBrBG6Amyu4+kDxxMoB3jhwgYu7TVAsVkFcWCs4CTBEoF4RctKeOxHIf8IXYpikHikAIf+MNUW94AGSSaoAoFIE3AlOyeWU+p2E5S9yfQZcQILVuQOwZdJNoS9Ls3wA5u2XZTIHECqeJ9kDpSaauRiNVcAY1QhdBzeLBli5WazpkSsBLV25uRaqWRyFawTQzRRIQYirJzq5atkBqLfouwqUxLBepthWb10vrWZY6UOAeyKCCtDV625mm9gmUC4Wc3VLJMMIE1BsA2FW9JraVlQB7n3c9oMKhCLEvIM1zBPZ25/umNQ1tVEC2G+fFCC8g398O2hNQuQlVu752DBfA+q0ptnqO5JFmeuIuo9DY7KjY71UxdJV4EntifPWorW++R/dC4t7V3DlIB5cHx2bc7eb3yvX//QNFp+bHDT/+Aw==);lineShape=1;strokeColor=#FF3333;" vertex="1" parent="1">
          <mxGeometry x="1314.2679852565384" y="586.675330769066" width="4.672539772115215" height="4.665236216357698" as="geometry" />
        </mxCell>
        <mxCell id="PY7oa7wBQ1f4bU9Xa10v-58" value="" style="shape=stencil(fZbdcgIhDIWfZm8zQAg/17Z9j85U606tdqz9e/tmZ0c0uJ47xP0I5JwEBl59bp8/1kNwn6fj4W39M76ctgM/DCGM++36OJ50NPDjwKvN4bh+PR6+9i/z74/n6ctp9H74nlb4nbmSKZeJCu5vngmZ6jzzNAO7cX8FVKEsBuBKrgKg9oAE8gkCbLeUhEoEQKSUDZDLeWYRKIl8MEDRmHwfyBrBG6Amyu4+kDxxMoB3jhwgYu7TVAsVkFcWCs4CTBEoF4RctKeOxHIf8IXYpikHikAIf+MNUW94AGSSaoAoFIE3AlOyeWU+p2E5S9yfQZcQILVuQOwZdJNoS9Ls3wA5u2XZTIHECqeJ9kDpSaauRiNVcAY1QhdBzeLBli5WazpkSsBLV25uRaqWRyFawTQzRRIQYirJzq5atkBqLfouwqUxLBepthWb10vrWZY6UOAeyKCCtDV625mm9gmUC4Wc3VLJMMIE1BsA2FW9JraVlQB7n3c9oMKhCLEvIM1zBPZ25/umNQ1tVEC2G+fFCC8g398O2hNQuQlVu752DBfA+q0ptnqO5JFmeuIuo9DY7KjY71UxdJV4EntifPWorW++R/dC4t7V3DlIB5cHx2bc7eb3yvX//QNFp+bHDT/+Aw==);lineShape=1;strokeColor=#FF3333;" vertex="1" parent="1">
          <mxGeometry x="1330.2679852565384" y="575.4753490796129" width="4.672539772115215" height="4.665236216357698" as="geometry" />
        </mxCell>
        <mxCell id="PY7oa7wBQ1f4bU9Xa10v-59" value="" style="shape=stencil(rVbZbhsxDPyafR1IpA7qOU3/I0CcelHXDhynx9+Xxna3piITKNC3PYYSOcOhNPHD2/7pdTdReLucT193P+bny37iTxPRfNzvzvNFnyZ+nPjh5XTefTmf3o/Py/vr0xV5ffp2+n5d4ecSFxDCNYjCr+VDDYjLl88L/jAfb/AJlAyeChLdx1c0MvhYkfg+PhYQm4CG4uRDArYFMGpx8idIMfiA7OSTdf3W4f8wMK6XQdUStDIwxEtGs/UKqN3Ht4yQLaEZ1QtQ/rqEEopTsQawlYwZ4u2QEGwJSrKnmSSwbaLUINkhNa6crAE5QaqjmnaRrSFXREe2FFBtDbqE16e0/d4CtLOi09iasU0pFRSvaMROBkFxNkg9Xp2Tnc4riLaRtLPZcyb3oyISgrOBOrFZmTOSowFXiKU0ulbI3Iu8DbNxwYLUuvWrQ6hQb7VtNo19QEjWaUqZN0ubfLBmRHYqjuHDuOawttV/itAqmmWpql2didrUOmInWFhn2pjX0qck1RWuSn+IaJLkKd3Q7JBvKp3jtdzWkbgF6J7eMSjItrdvmL7X3d3Q00GbHLG120pXRF3PorHW24jbAnh11Fi5ftBLQ3AMwX1CsjlwiA+932pxj6rRXST8I976TR/+Xnxe5sNhuTfd/u8vSvppuWTx428=);lineShape=1;strokeColor=#FF3333;" vertex="1" parent="1">
          <mxGeometry x="1330.499664915379" y="547.8477276039675" width="4.087386194030842" height="6.856433498757269" as="geometry" />
        </mxCell>
        <mxCell id="PY7oa7wBQ1f4bU9Xa10v-60" value="" style="shape=stencil(lVbLchsxDPuavWJEvXVO0//ITJzaU9fOOO7r78vtdjchk6DtTV4TEiGCoKZ087S/e9xNMTxdL+fPu++H++t+Sh+mGA+n/e5yuOpqSrdTunk4X3afLuevp/vl9+PdHDmvvpy/zTv8WHAZNc2gGH4uH5qgtN9fPi7xx8PpRXyMyMEASkKT9wFZkJsBpIpAAFVPqAYgHTW+D+hlzXgDoAwS3z3nACH7D0GvLj4GEp/Rh8unE8KjIUcTn9FI/mNA7P4dneQvISDYmklC5ie05kuQGOWOYq9UddIyAVRksYCKRHQ30qqBDdDROgEEL6M4aEq9ITYPEAbIa8YboCEUAogILiVlRTj0gOoKN5A4QGwdRBucaE8BzZ4w0EkZlEK0FAoqo/zKXyIS682G0l2vZaajsLbKc3xgQk0YVkYCYb1ZUS1frRiTaff32Shf7bSebT6CwQgMDOeOlfqvAv5ocquAICVqR9FS0BpH1mnZq1RbU9gJmyb/EdCid/isnk9IFwXYMutUYXVLGcHNwUFNW29dbEqzjZMT1HKHPWH28UoAsnr0VunAxd0xuj9hkOapKFZKY9vh7VGOVDxlIeLWIjhvydQstlbc4mUdK2/GB+9FOtnZ/bwag+pOkZQsINneVLcsNH83QJrOA/aWQnOaUxWSQf6/b7W/x+vi+WH4cDgel3fly//9Q1I/LY/QdPsL);lineShape=1;strokeColor=#FF3333;" vertex="1" parent="1">
          <mxGeometry x="1343.386876054843" y="508.55093946109696" width="17.432877687059772" height="11.652536008309198" as="geometry" />
        </mxCell>
        <mxCell id="PY7oa7wBQ1f4bU9Xa10v-61" value="" style="shape=stencil(lVbLctswDPwaXTEkwOc5Sf8jM3FqTVw747ivvy9UjVQDsTbNTZa5IrCLXXKQu7f94+tu4PB2OZ9edj/Hp8t+kPuBeTzud+fxok+DPAxy93w6776eT9+PT/Pv18dp5fT07fRj+sKvGReZuE8oDr/nN1wohb9vvsyAw3i8Akimmi1g/cRNQBaSaAAxU+JtQBNqyQACJbBBayTZr0/b6ztTEbM+URKwvhCzbYApIECjWj1FKQNAp25FkEQlQkAttoW6FLlVUrQi5Ea9AkAmtoDSqKAdolehZopgh1ao2x5qpQ5obUqipbUWyFLVwWgWsBZ5G6AVB9s0U0U78ELiSmukDJpWgJsl6RQBrdMO1gzqz4J7CHa6J7uhkppPgLI4fEsGx2qkBDhSnZu3ZwABo4PEdi7Ur3hSo21YGUX2bxTs96P6FdlZzWYlkADtHMPa4WpPoYACoFFz9lT/fZBJTrQMJ1VDr9rBq5rLOFWT83OlVDDgnZ8RIBfv5x7gwSB1yfUVkJcovy2E+Fy9kmZDOmqWJlU/A0ClandQZRo6Df3wqTACemY/GGqnAEiNFJ0IDbo/ELvEW8+ijfVuskuE+RUo23qy9gvqiT4sUiIGztG7gq1HhwQZ551vJC7GuO2b5Qxbw0jjA6TLp+9T/wHQh3/Xt+fxcJhvf9f/++uevpqvivLwBw==);lineShape=1;strokeColor=#FF3333;" vertex="1" parent="1">
          <mxGeometry x="1404.0032389970957" y="490.1722698252977" width="15.19810949170187" height="5.423550052480323" as="geometry" />
        </mxCell>
        <mxCell id="PY7oa7wBQ1f4bU9Xa10v-62" value="" style="shape=stencil(lVbbchoxDP2afT1jWbZlP+fyH5kJlJ1SyBCSNn8fbbdskQFl8rYYHUtHOpI18N3r5ullNcTwejzsf65+j8/HzcD3Q4zjbrM6jEf9Gvhh4Lv1/rD6cdi/7Z7n3y9Pk+X09Wv/Pt3wZ8YRo6QJFcPHv5MGan9PHmfAdtydAbiiZgNoKPG2fY1I0dgHhODYC5q1J7R8275F1GbsK9i5vxVUsvcrwCHcGmIxACaQExGFheEJkTKix6Gi2SJkdeokVUlE60EI2SMREWzVKiGIU4bSh6QnpTgAQrJ51UpKvQ2QgmALXROYHACBLQe9wpNeEdRqACUjOx7072YBOYKSC6g2S7zI91ZIyXqIStoBSICwlWuEOJWWRWqL+JC9/gzI0vUn+8Kgvp+r129aNUsgQ5yUtoxi46eE4uhIm6dYB1Fl4Td06zKkOfAoNCQ7YvIXIQliJzzxSTOynTHiT7FaIV3z5JPP6wDup1j1lToB5DuAxGBLugU0h4POXbLNo4n2pE3LfFikEfzHhC7EraWpziSWi5AYyemGdBrTZ0kiJ0nUDxjR19aZqhq/jUfnQXDtu5enaDc7wgt9zbJ6dGREKDafaWnv69sCxNoz+wP19Iqd9XLyOq1/pTRCceK5vu54hL/ej/Tj/3a1HrfbeTk7/7/fxvRo3uT44RM=);lineShape=1;strokeColor=#FF3333;" vertex="1" parent="1">
          <mxGeometry x="1469.5715178934934" y="478.6354203113676" width="12.765876976616255" height="4.983416027691874" as="geometry" />
        </mxCell>
        <mxCell id="PY7oa7wBQ1f4bU9Xa10v-63" value="" style="shape=stencil(7VrLctw4DPyauaJIgATJczb5j1TFWU+t1045zuvvF9opckRw1K7ccvBtLKMlAgTQDUoneff1/uOXuxOHry/PT//c/Th/erk/yV8n5vPj/d3z+cV+neT9Sd59fnq++/v56dvjp8vfXz5ultuvf5++b3f4ecFlqm0Dcfh1ucBU5P8LHy7mD+fHnXmhNpvHSByP7Rs1mW8vlPjY3m5XeAJIpYwATDVPgJwoNACwBcwuqDkVIKDMgNIoJgBIFMMEqK88IVGKE6CZDyCqBpAyA5RCgQCefWiFAl5SSB5QcVjVASopWpL4KLVGgpbElNQDSsa5lD2gIR8ihTn5Ygg4TIEkLmsCj2g9JnunFdnH6KNaQO5ZzJd9bmAXKiXx9qh6KomzV4pg/Uo8b0FNvV5v2mfS+f6lwD3OPWWGfaSI7ed46qi9A3vXLLKVAWhH2fe7zBTAepRaneyT9tI+Srg8A0SpIECmPHu85QjwmCOlecvsCnLBOCHOdbm1J8AhwiRzmVmWg5jKSOERVIr12D4JtbkVMeScbBRWnX0BOZ1zv911PQU0iTzcu7YVyqDIlInnrLZdRFWsudPF8IAhgRjlyZIVME+bj5EILASrwzD7IA1GqbAnwZR7cdwGiO9dVmsCemNJnSMHoEGnDeC7hcJMNUBy7Ygp4ydk1x8Hyx0BHKdV4zT0hEzsOnakjPYhdwIYAIbJZ0vynGNxw057bWFNCj3BpIJ7guKwcm8QO1pjlBrRp4YBFETJ6qHxbwEq1bgsCVWcEU1YnEZUqz0R9mEFBWQAR57bxqEnLMPClhroCXlRYLHT0VFY8/yEmqG+2Ep03ulS+5XbgOqbtyULUhhWkLLMC0jY1uI1ngZS8AQLottpG2HQzGPbFF3nk16DtwHZh9UACdTDpgKTB1Q051XP6eYDItGr2B8A7VV+BKiuexfY+TaxP6eGtfuKl6SzD2oTBHa6OoB0xjgKq85SyeQnasZW8uxyKcPZ01LD5ZJisdRkSe8E9WFbxImOifo2IHZW3oW1AX3Ygu+tVkARRSksArHiXDKN61JDO3MfOe0lX+qLPAqrawJWQOgMwErUjcNbiaL01s6Z+yaAllR8WM0HwRXnVKUpX9T5ttnX9aUCFdluvN7VKCMnmj+MsWSKKF2b75Wmrl/pZGHODSsIREG/DzD945ZUYWOqtfPH4Cw8cVxJc9BogKxYo+/GVWH2vcnKP0dWLoA3WbkC/AFrgBun2R+zmAzMGKDL5IfazLYkx+wKxcaVx3esiFSiLhSUxhB/GxCouhm/4sM39W8DtvNEBIieqGOD+5C0i8j92RJwOnG/3wDgk3EpfoCIDRKK8HK6JJCyuHgNxw0SNVuUZqdFO2PcplHrEe4UkaGcsSC6Y1ZLjVdemniernAfIi9DUOovCA5P9x3HBThAxFGQA6BQVhqgOY4TOJfFRRrXBkv07bXM0Ghvr2VmffWHvZapfg5t+KVp9S9ZTZKijlSpzfEpOJ7V063pGniUS8XNbwm+BVHfXKT1CNymEX+OyyZfgT33oXxkqECNFJYDHNgnlikpwUOA4JuE9JH9wJznZGBY8MF3lAjH//E+rpubykBduu/j1RwlAnsVFeA+LYof9xHxaWz7BrYp+Yk8QGWdfWQi3NXlDC92uXZgvn7YAe/+yncg9uP6Dcnn88PD5ROU/f/9Nyd26fK9irz/Dw==);lineShape=1;strokeColor=#FF3333;" vertex="1" parent="1">
          <mxGeometry x="1401.910948287918" y="521.5107813443487" width="56.06204174579443" height="43.31436324591391" as="geometry" />
        </mxCell>
        <mxCell id="PY7oa7wBQ1f4bU9Xa10v-64" value="" style="shape=stencil(lVnLchw3DPyavaJIgM+z4vyHqyxFW1Ekl6wk9t8b9BZHQ2CmVb6tRsSQABqNBucid98eP3+9v3D49vb68vf9/9cvb48X+ePCfH1+vH+9vumvi3y6yN3Dy+v9X68v/z5/uf399fNYOX798/LfeMP3m11kym1Ycfhxe9I7Rfn15M+bwdP1eW8QqdTVIFOOwCC4HXTPfG7QqPVlfWsU2vn6Qm19fxMK5Xx9olaW9bVSBh4z9fX9NZKA82iAwrK+JOrgPC4+uVEBAQ0U1vdnJq5wfV7Wp0I5wPPEdX0kTsjftL5fCjHwl6nKuj5SB+dJVNd8cSXu5+srlRU/umNCANV0rgGN+gqU4Exl9TjKzMmxQbeQ0xoDG7BQ5xVCOKLVvj9R4PP1GvBiQkoCIiqZZIVEhOeRZksgwIpPMgH/vh7FMzWq9v0IEVogoZrzR1AxOfv4ZBDPrPllE39UwUX9XUugUAXnKdWWcIOMUgNFA9A4nxwbuJpURCOEVi3KtciikhxwoSrnmBQU2DZqtzQX2yT647ahmDF1H6ihIzWXZU0zIDp1Ojpm6SisgdKKCwVeBUDVRMdofUio9ylTJBulCqBRgu1mmocEfBjNyBgkymCHXCdy9uAD1VyY2upDnwrgeL0Cp7sNEFiDw57AjqmJljVvSvkJSARVEEYUaQtBUVWwZpO3PuF7bMBW5QxkAB9asRzAH8iu5upHYEmrgREuim4kLHpwUGoz9ccGPIXZDqxIinSZvL4ZaGcDTquBOCxVvIMtOO2FyOk0qX0zCJADVE5basXdsxcrmIcBOlKd3WNnUEBJdyfJ1WnUoHWGsBWnKhE53SeR7hIXAPiGgct0wTsU1+IYsIY6bZlScOK2MWXHlBFhqU6VtjMQoDMUGt0bYPA1dyQ0S6lBcFGCYRVKyRpEhCVx7YFhP+lbmnZY6rhEK1sDQVhKk0l39dCBNtE8WKcDFHxaopmtwQclWrwBBp+R3BGrH60HcWEV5IMbYtQA7RCDm1Q11UjN/L7FqGrXqZGUHtxnct0x0WTL39rlGipShZ9piwkSTVMqW2tuXGmAimhptqi9AThS2/C/O1JBeqZZPaPiAY3EdbtS2EUJNd4qTsT1WbZnIo7NDFrhtYHKRDEtpcwx6tggWnk/OgQSosp9riLQTFN0rnRkKSAPOg80g9YMDTRKoVinEZVVdgKowdlYE2fEwxi+0TDKVlfqDgGNWWFKhf2IgsZjHXkMNBKep4vjPoYVNzLt6Lgh8LkJvE1WOB6air1EK1AZZ7YCK0MWS93esAiERXJXXAzHysRu2oDrpVqtJLD5iMxw72640I2VYpJNfBLIl4bbJLhCycCbZtkBIgL6UsxbrlCX0D17sh7oK+C1c7CXYu831yf3pM2krEIGzlZLCk/CPLm3Na1Z8E2D2CpOEXKdTNrZ32sjDDlIMLw20Pys58ltyr6z7woruZc0b9WOOWKOshvkIvxu0eYwsa2v8FIvuo7ZeKbk2IDttUerkwbOMGqqvjM+UnYGeWbl2KDYaWHMotiA1yroWN+NHZwBoiL1oUdrgL4fjc8FYg1QoamBmXiG9kY+JCsTxngMoKQGboDBV+5jbnRhQuwSncAbBmgHV58jTMgJttPwSAQ6EluGHKlGcf3tj6MfG+iP92+xD9enp9un3P3/7bdbfXT77iuffgI=);lineShape=1;strokeColor=#FF3333;" vertex="1" parent="1">
          <mxGeometry x="885.8715841716305" y="818.186037835545" width="78.76154312809967" height="140.04678852741108" as="geometry" />
        </mxCell>
        <mxCell id="PY7oa7wBQ1f4bU9Xa10v-65" value="" style="shape=stencil(fZbdcgIhDIWfZm8zQAg/17Z9j85U606tdqz9e/tmZ0c0uJ47xP0I5JwEBl59bp8/1kNwn6fj4W39M76ctgM/DCGM++36OJ50NPDjwKvN4bh+PR6+9i/z74/n6ctp9H74nlb4nbmSKZeJCu5vngmZ6jzzNAO7cX8FVKEsBuBKrgKg9oAE8gkCbLeUhEoEQKSUDZDLeWYRKIl8MEDRmHwfyBrBG6Amyu4+kDxxMoB3jhwgYu7TVAsVkFcWCs4CTBEoF4RctKeOxHIf8IXYpikHikAIf+MNUW94AGSSaoAoFIE3AlOyeWU+p2E5S9yfQZcQILVuQOwZdJNoS9Ls3wA5u2XZTIHECqeJ9kDpSaauRiNVcAY1QhdBzeLBli5WazpkSsBLV25uRaqWRyFawTQzRRIQYirJzq5atkBqLfouwqUxLBepthWb10vrWZY6UOAeyKCCtDV625mm9gmUC4Wc3VLJMMIE1BsA2FW9JraVlQB7n3c9oMKhCLEvIM1zBPZ25/umNQ1tVEC2G+fFCC8g398O2hNQuQlVu752DBfA+q0ptnqO5JFmeuIuo9DY7KjY71UxdJV4EntifPWorW++R/dC4t7V3DlIB5cHx2bc7eb3yvX//QNFp+bHDT/+Aw==);lineShape=1;strokeColor=#FF3333;" vertex="1" parent="1">
          <mxGeometry x="959.8679608424759" y="829.8753124585194" width="4.672539772115215" height="4.665236216357243" as="geometry" />
        </mxCell>
        <mxCell id="PY7oa7wBQ1f4bU9Xa10v-66" value="" style="shape=stencil(7VvLchw3DPwaXVl8kzg7zn+4ynKkiiK5ZOX19wGz4eyyMdNj3XLwTQ/0kgSBRhPk3qUP3x4+fb2/i/7b2+vLr/d/Pn5+e7hLP93F+Pj8cP/6+KY/3aWPd+nDl5fX+19eX35//nz5/eunYTl++u3lj/EJf11wIboUBir6vy9/EXE9/vuXny+Ap8fnW0BwoayA7rI/BujHgX11LRzbd1fSap9dzcf2zYW62kfnyecX1/Ji37uTcmyfXQL74rIc2yfn42ofnBD/BNf7Yt/Un2S9wfnVn03nU4/tPfqzxbkjB/ZxnX/zrtLP9+v8q/ozUXu/2jeXSMB59Gct1J86f/j8TP2p/oH5q3+o/yH+a5gReLS/a3wWcZH4P7q6zqc0+vnJ1dU/JbveWDxD/JfoYj+2rzObpn0Wl8n8G8Zbri6TfBQX1vXm5CKZf/BOAOBdYAlmMjJVJ2yEMgNyAySaMqFNBtkAfnp5f4/13+sa1G2VrCEmZFHdx0x2Tbetr2vQQCxkG3QfWlsAobtKvJQ0TdZEC3VS0z6gmBG22N0HCG6cFp9IqDdrMYNaM4Nr3764Dtw4yWPfXubwW+7Q0NbMqmvupEkG+/YFXRpdIWFU+qyMm4NcITugTBXX+fhZfPbtk0sJ7DMJCWVmn8E+kvnXOpn5au+Jf7RS1Ir2ZL+0EnVjT9arlQ5qq6elqQUkCs1rMn+tvDD/QJO45emOazwkEv+qBOoaP8kVNv82iXOjUpryqkwK1LLJY/v24mSNtzoTbl/6mfhsVJr1OMP9Jt/Z5ydDWbrBJIBU6oG4VAYqZAd6nbVxA0RaCXpD+RE4R6haBU4JmRanruUaWLRMibFfkE0WKLEnMiUxklQLIpNcCsB90MhiZ4g4eXYDCBcVWvPXWjOoi01JS9FK7ZqbiQHyVHEbIFIdrgCcUnKNL7pBCc9Tmx+5NXccgR2ddKdTxzXQ4BMMb/WSsHzQaE24D8JGaEgZutNColUBSRAQCIkpIEJOdyqYuzlhhk7dOgARAYy3ByAjIPARIozQ6KFoeKkigJHA4CWT00w/KgDVXZvRdRQaqO7a7EUcAaIdgS26z+p3C2BU2Wf5viUyTsZi3UpSVBMoBASwkijm+K6hcUICDQBCRc+gmY6AzrkVvDTO0IzIsiGBMLlwH2DOnCc0owAxvMTOU2JY40S6KQBDQ6aj9wEd1zBYg43QDc1s2uAIgCRQpzY4BEBoFKqfd0bgglJsiiZ6Arj2Dm/0Et1pK3+2c+gRoDcEUPkjZh8UQFhDAXCKGZqP7YOg1gi87I6WrHErTSDBHokCqJqR6fXvPJsPgAmNzjZO0wUKSqZiXQHIfJnSvQgqsgHgsYTsfQrAjcu0ITHC24wQeAIl/y632pw+2bg+E/I2NDiRQVPlLPj6bFrchjdLoG4q0GkC+femKK7hlATeSTOC/bYzIhMsWYMqWZPRm875YGOycweIk6yGSekJ/2QV4Cd+uzP8BMHRzkZosAah9zuWjkcXipOlN/LkpPDCiTpG2gcZ4gH0TKJthHFFBhLrhDfKlGw3AM8A2SimxK/x0mwN3SyaHQiGrmzoVnYxNJSrAVB29catnh/MxBwITg6Xlr+FH2p+HC7/A/w4XP7/D5cKwN6JBjwHCMQSv8wUjzcUmqKB5XSYl5G3DSOmXCP2sMfRjzFfRAE0iIzVh2BohjeBxxpM04tOye8dLjnzRdNAbYxmBDv3o+wyEugmRSu99u0N79JCoUfwXo0SyHQfejEyMfEEytgPVU3GCkpPGEshTG2wDwh4MBN6odZNN6fPHu+ufRMsJ222Uvbt26yw077SPWjmAq5QRdky5n/mbwESNpgT5ZcWjRSjHY3m8YIv0Jv9KibR6HprN820uSH79g1FUqBPE2o1RyV6tKr2Poq+DalpltWrPatRNZjrq3lq37UvHeMhUhFZKj6eSfRmqSQ8wPALyixI1ZVf6FesNo3qwRyRs4RK2mRplz9OS9VIKd70SMncjFVKKcnvXKUxZaQuyUb4M/2oe1SgIpcpTPYBwYzQ6bYNiQxhFOgaxsuU1a0pU/2olaWtyihxsaaFAgDZ07cYwZt3VdsV5H7tcGl1Uq70oWbFd4WZP+ws5h0Z76lk1L+l0IuJhB2VwjV/RD1RhKquOG/9ttTnjysCvsVQsvTk8wO+/amZzieYd5GFPmYwz9q0mDCxEjB+rq9dDuwDvHXy9HFRmJV6s+cts4CloPF4iNgPbv3knWNf/d/5FU9BiTwec7DaN3dzs99euxzkI5QmOTkV4DtiyZRGlSDg1kwqbZgrBUFLfvSdOMnBeVH41fkANATQt5oJH/SI0GbFACQEMJbYHYFJ5LGGigCmcUa3uyOAPhCOeJdyvSw5AuApgrelgsmdm1bvEQKC6TsQxTiWvdwIEa/yBoCP8M6vHpwD9IfrNx2+PD49Xb4ocft//GaE/unyrYr08R8=);lineShape=1;strokeColor=#FF3333;" vertex="1" parent="1">
          <mxGeometry x="831.9673173971153" y="687.4923750443236" width="274.0700317073331" height="278.71762595604287" as="geometry" />
        </mxCell>
      </root>
    </mxGraphModel>
  </diagram>
</mxfile>
